  0
SECTION
  2
HEADER
  9
$ACADVER
  1
AC1018
  9
$ACADMAINTVER
 70
     0
  9
$DWGCODEPAGE
  3
ANSI_932
  9
$INSBASE
 10
0.0
 20
0.0
 30
0.0
  9
$EXTMIN
 10
1.000000000000000E+20
 20
1.000000000000000E+20
 30
1.000000000000000E+20
  9
$EXTMAX
 10
-1.000000000000000E+20
 20
-1.000000000000000E+20
 30
-1.000000000000000E+20
  9
$LIMMIN
 10
0.0
 20
0.0
  9
$LIMMAX
 10
12.0
 20
9.0
  9
$ORTHOMODE
 70
     0
  9
$REGENMODE
 70
     1
  9
$FILLMODE
 70
     1
  9
$QTEXTMODE
 70
     0
  9
$MIRRTEXT
 70
     1
  9
$LTSCALE
 40
1.0
  9
$ATTMODE
 70
     1
  9
$TEXTSIZE
 40
0.2
  9
$TRACEWID
 40
0.05
  9
$TEXTSTYLE
  7
Standard
  9
$CLAYER
  8
0
  9
$CELTYPE
  6
ByLayer
  9
$CECOLOR
 62
   256
  9
$CELTSCALE
 40
1.0
  9
$DISPSILH
 70
     0
  9
$DIMSCALE
 40
1.0
  9
$DIMASZ
 40
0.18
  9
$DIMEXO
 40
0.0625
  9
$DIMDLI
 40
0.38
  9
$DIMRND
 40
0.0
  9
$DIMDLE
 40
0.0
  9
$DIMEXE
 40
0.18
  9
$DIMTP
 40
0.0
  9
$DIMTM
 40
0.0
  9
$DIMTXT
 40
0.18
  9
$DIMCEN
 40
0.09
  9
$DIMTSZ
 40
0.0
  9
$DIMTOL
 70
     0
  9
$DIMLIM
 70
     0
  9
$DIMTIH
 70
     1
  9
$DIMTOH
 70
     1
  9
$DIMSE1
 70
     0
  9
$DIMSE2
 70
     0
  9
$DIMTAD
 70
     0
  9
$DIMZIN
 70
     0
  9
$DIMBLK
  1

  9
$DIMASO
 70
     1
  9
$DIMSHO
 70
     1
  9
$DIMPOST
  1

  9
$DIMAPOST
  1

  9
$DIMALT
 70
     0
  9
$DIMALTD
 70
     2
  9
$DIMALTF
 40
25.4
  9
$DIMLFAC
 40
1.0
  9
$DIMTOFL
 70
     0
  9
$DIMTVP
 40
0.0
  9
$DIMTIX
 70
     0
  9
$DIMSOXD
 70
     0
  9
$DIMSAH
 70
     0
  9
$DIMBLK1
  1

  9
$DIMBLK2
  1

  9
$DIMSTYLE
  2
Standard
  9
$DIMCLRD
 70
     0
  9
$DIMCLRE
 70
     0
  9
$DIMCLRT
 70
     0
  9
$DIMTFAC
 40
1.0
  9
$DIMGAP
 40
0.09
  9
$DIMJUST
 70
     0
  9
$DIMSD1
 70
     0
  9
$DIMSD2
 70
     0
  9
$DIMTOLJ
 70
     1
  9
$DIMTZIN
 70
     0
  9
$DIMALTZ
 70
     0
  9
$DIMALTTZ
 70
     0
  9
$DIMUPT
 70
     0
  9
$DIMDEC
 70
     4
  9
$DIMTDEC
 70
     4
  9
$DIMALTU
 70
     2
  9
$DIMALTTD
 70
     2
  9
$DIMTXSTY
  7
Standard
  9
$DIMAUNIT
 70
     0
  9
$DIMADEC
 70
     0
  9
$DIMALTRND
 40
0.0
  9
$DIMAZIN
 70
     0
  9
$DIMDSEP
 70
    46
  9
$DIMATFIT
 70
     3
  9
$DIMFRAC
 70
     0
  9
$DIMLDRBLK
  1

  9
$DIMLUNIT
 70
     2
  9
$DIMLWD
 70
    -2
  9
$DIMLWE
 70
    -2
  9
$DIMTMOVE
 70
     0
  9
$LUNITS
 70
     2
  9
$LUPREC
 70
     4
  9
$SKETCHINC
 40
0.1
  9
$FILLETRAD
 40
0.5
  9
$AUNITS
 70
     0
  9
$AUPREC
 70
     0
  9
$MENU
  1
.
  9
$ELEVATION
 40
0.0
  9
$PELEVATION
 40
0.0
  9
$THICKNESS
 40
0.0
  9
$LIMCHECK
 70
     0
  9
$CHAMFERA
 40
0.5
  9
$CHAMFERB
 40
0.5
  9
$CHAMFERC
 40
1.0
  9
$CHAMFERD
 40
0.0
  9
$SKPOLY
 70
     0
  9
$TDCREATE
 40
2457861.49625
  9
$TDUCREATE
 40
2457861.829583333
  9
$TDUPDATE
 40
2457861.496250011
  9
$TDUUPDATE
 40
2457861.829583345
  9
$TDINDWG
 40
0.0000000116
  9
$TDUSRTIMER
 40
0.0000000116
  9
$USRTIMER
 70
     1
  9
$ANGBASE
 50
0.0
  9
$ANGDIR
 70
     0
  9
$PDMODE
 70
     0
  9
$PDSIZE
 40
0.0
  9
$PLINEWID
 40
0.0
  9
$SPLFRAME
 70
     0
  9
$SPLINETYPE
 70
     6
  9
$SPLINESEGS
 70
     8
  9
$HANDSEED
  5
64
  9
$SURFTAB1
 70
     6
  9
$SURFTAB2
 70
     6
  9
$SURFTYPE
 70
     6
  9
$SURFU
 70
     6
  9
$SURFV
 70
     6
  9
$UCSBASE
  2

  9
$UCSNAME
  2

  9
$UCSORG
 10
0.0
 20
0.0
 30
0.0
  9
$UCSXDIR
 10
1.0
 20
0.0
 30
0.0
  9
$UCSYDIR
 10
0.0
 20
1.0
 30
0.0
  9
$UCSORTHOREF
  2

  9
$UCSORTHOVIEW
 70
     0
  9
$UCSORGTOP
 10
0.0
 20
0.0
 30
0.0
  9
$UCSORGBOTTOM
 10
0.0
 20
0.0
 30
0.0
  9
$UCSORGLEFT
 10
0.0
 20
0.0
 30
0.0
  9
$UCSORGRIGHT
 10
0.0
 20
0.0
 30
0.0
  9
$UCSORGFRONT
 10
0.0
 20
0.0
 30
0.0
  9
$UCSORGBACK
 10
0.0
 20
0.0
 30
0.0
  9
$PUCSBASE
  2

  9
$PUCSNAME
  2

  9
$PUCSORG
 10
0.0
 20
0.0
 30
0.0
  9
$PUCSXDIR
 10
1.0
 20
0.0
 30
0.0
  9
$PUCSYDIR
 10
0.0
 20
1.0
 30
0.0
  9
$PUCSORTHOREF
  2

  9
$PUCSORTHOVIEW
 70
     0
  9
$PUCSORGTOP
 10
0.0
 20
0.0
 30
0.0
  9
$PUCSORGBOTTOM
 10
0.0
 20
0.0
 30
0.0
  9
$PUCSORGLEFT
 10
0.0
 20
0.0
 30
0.0
  9
$PUCSORGRIGHT
 10
0.0
 20
0.0
 30
0.0
  9
$PUCSORGFRONT
 10
0.0
 20
0.0
 30
0.0
  9
$PUCSORGBACK
 10
0.0
 20
0.0
 30
0.0
  9
$USERI1
 70
     0
  9
$USERI2
 70
     0
  9
$USERI3
 70
     0
  9
$USERI4
 70
     0
  9
$USERI5
 70
     0
  9
$USERR1
 40
0.0
  9
$USERR2
 40
0.0
  9
$USERR3
 40
0.0
  9
$USERR4
 40
0.0
  9
$USERR5
 40
0.0
  9
$WORLDVIEW
 70
     1
  9
$SHADEDGE
 70
     3
  9
$SHADEDIF
 70
    70
  9
$TILEMODE
 70
     1
  9
$MAXACTVP
 70
    64
  9
$PINSBASE
 10
0.0
 20
0.0
 30
0.0
  9
$PLIMCHECK
 70
     0
  9
$PEXTMIN
 10
1.000000000000000E+20
 20
1.000000000000000E+20
 30
1.000000000000000E+20
  9
$PEXTMAX
 10
-1.000000000000000E+20
 20
-1.000000000000000E+20
 30
-1.000000000000000E+20
  9
$PLIMMIN
 10
0.0
 20
0.0
  9
$PLIMMAX
 10
12.0
 20
9.0
  9
$UNITMODE
 70
     0
  9
$VISRETAIN
 70
     1
  9
$PLINEGEN
 70
     0
  9
$PSLTSCALE
 70
     1
  9
$TREEDEPTH
 70
  3020
  9
$CMLSTYLE
  2
Standard
  9
$CMLJUST
 70
     0
  9
$CMLSCALE
 40
1.0
  9
$PROXYGRAPHICS
 70
     1
  9
$MEASUREMENT
 70
     0
  9
$CELWEIGHT
370
    -1
  9
$ENDCAPS
280
     0
  9
$JOINSTYLE
280
     0
  9
$LWDISPLAY
290
     1
  9
$INSUNITS
 70
     1
  9
$HYPERLINKBASE
  1

  9
$STYLESHEET
  1

  9
$XEDIT
290
     1
  9
$CEPSNTYPE
380
     0
  9
$PSTYLEMODE
290
     1
  9
$FINGERPRINTGUID
  2
{F85906F1-D570-F63A-8376-3AC908B7E540}
  9
$VERSIONGUID
  2
{FAEB1C32-E019-11D5-929B-00C0DF256EC4}
  9
$EXTNAMES
290
     1
  9
$PSVPSCALE
 40
0.0
  9
$OLESTARTUP
290
     0
  9
$SORTENTS
280
   127
  9
$INDEXCTL
280
     0
  9
$HIDETEXT
280
     1
  9
$XCLIPFRAME
290
     0
  9
$HALOGAP
280
     0
  9
$OBSCOLOR
 70
   257
  9
$OBSLTYPE
280
     0
  9
$INTERSECTIONDISPLAY
280
     0
  9
$INTERSECTIONCOLOR
 70
   257
  9
$DIMASSOC
280
     2
  9
$PROJECTNAME
  1

  0
ENDSEC
  0
SECTION
  2
CLASSES
  0
CLASS
  1
ACDBDICTIONARYWDFLT
  2
AcDbDictionaryWithDefault
  3
ObjectDBX Classes
 90
        0
 91
        3
280
     0
281
     0
  0
CLASS
  1
VISUALSTYLE
  2
AcDbVisualStyle
  3
ObjectDBX Classes
 90
     4095
 91
        3
280
     0
281
     0
  0
ENDSEC
  0
SECTION
  2
TABLES
  0
TABLE
  2
VPORT
  5
8
330
0
100
AcDbSymbolTable
 70
     1
  0
VPORT
  5
29
330
8
100
AcDbSymbolTableRecord
100
AcDbViewportTableRecord
  2
*Active
 70
     0
 10
0.0
 20
0.0
 11
1.0
 21
1.0
 12
0.0
 22
0.0
 13
0.0
 23
0.0
 14
0.5
 24
0.5
 15
0.5
 25
0.5
 16
0.0
 26
0.0
 36
1.0
 17
23.48711072546503
 27
-49.61738483460086
 37
0.0
 40
62.48490259939614
 41
0.8406134302971493
 42
50.0
 43
0.0
 44
0.0
 50
0.0
 51
0.0
 71
     0
 72
   100
 73
     1
 74
     3
 75
     0
 76
     0
 77
     0
 78
     0
281
     0
 65
     1
110
0.0
120
0.0
130
0.0
111
1.0
121
0.0
131
0.0
112
0.0
122
1.0
132
0.0
 79
     0
146
0.0
  0
ENDTAB
  0
TABLE
  2
LTYPE
  5
5
330
0
100
AcDbSymbolTable
 70
     1
  0
LTYPE
  5
14
330
5
100
AcDbSymbolTableRecord
100
AcDbLinetypeTableRecord
  2
ByBlock
 70
     0
  3

 72
    65
 73
     0
 40
0.0
  0
LTYPE
  5
15
330
5
100
AcDbSymbolTableRecord
100
AcDbLinetypeTableRecord
  2
ByLayer
 70
     0
  3

 72
    65
 73
     0
 40
0.0
  0
LTYPE
  5
16
330
5
100
AcDbSymbolTableRecord
100
AcDbLinetypeTableRecord
  2
Continuous
 70
     0
  3
Solid line
 72
    65
 73
     0
 40
0.0
  0
ENDTAB
  0
TABLE
  2
LAYER
  5
2
330
0
100
AcDbSymbolTable
 70
     2
  0
LAYER
  5
10
330
2
100
AcDbSymbolTableRecord
100
AcDbLayerTableRecord
  2
0
 70
     0
 62
     7
  6
Continuous
370
    -3
390
F
  0
LAYER
  5
3B
330
2
100
AcDbSymbolTableRecord
100
AcDbLayerTableRecord
  2
Layer 1
 70
     0
 62
     7
  6
Continuous
370
    -3
390
F
  0
ENDTAB
  0
TABLE
  2
STYLE
  5
3
330
0
100
AcDbSymbolTable
 70
     1
  0
STYLE
  5
11
330
3
100
AcDbSymbolTableRecord
100
AcDbTextStyleTableRecord
  2
Standard
 70
     0
 40
0.0
 41
1.0
 50
0.0
 71
     0
 42
0.2
  3
txt
  4

  0
ENDTAB
  0
TABLE
  2
VIEW
  5
6
330
0
100
AcDbSymbolTable
 70
     0
  0
ENDTAB
  0
TABLE
  2
UCS
  5
7
330
0
100
AcDbSymbolTable
 70
     0
  0
ENDTAB
  0
TABLE
  2
APPID
  5
9
330
0
100
AcDbSymbolTable
 70
     1
  0
APPID
  5
12
330
9
100
AcDbSymbolTableRecord
100
AcDbRegAppTableRecord
  2
ACAD
 70
     0
  0
ENDTAB
  0
TABLE
  2
DIMSTYLE
  5
A
330
0
100
AcDbSymbolTable
 70
     1
100
AcDbDimStyleTable
  0
DIMSTYLE
105
27
330
A
100
AcDbSymbolTableRecord
100
AcDbDimStyleTableRecord
  2
Standard
 70
     0
340
11
  0
ENDTAB
  0
TABLE
  2
BLOCK_RECORD
  5
1
330
0
100
AcDbSymbolTable
 70
     2
  0
BLOCK_RECORD
  5
1F
330
1
100
AcDbSymbolTableRecord
100
AcDbBlockTableRecord
  2
*Model_Space
340
22
  0
BLOCK_RECORD
  5
1B
330
1
100
AcDbSymbolTableRecord
100
AcDbBlockTableRecord
  2
*Paper_Space
340
1E
  0
BLOCK_RECORD
  5
23
330
1
100
AcDbSymbolTableRecord
100
AcDbBlockTableRecord
  2
*Paper_Space0
340
26
  0
BLOCK_RECORD
  5
47
330
1
100
AcDbSymbolTableRecord
100
AcDbBlockTableRecord
  2
block 2
340
0
102
{BLKREFS
331
48
102
}
  0
ENDTAB
  0
ENDSEC
  0
SECTION
  2
BLOCKS
  0
BLOCK
  5
20
330
1F
100
AcDbEntity
  8
0
100
AcDbBlockBegin
  2
*Model_Space
 70
     0
 71
     0
 10
0.0
 20
0.0
 30
0.0
  3
*Model_Space
  1

  0
ENDBLK
  5
21
330
1F
100
AcDbEntity
  8
0
100
AcDbBlockEnd
  0
BLOCK
  5
1C
330
1B
100
AcDbEntity
 67
     1
  8
0
100
AcDbBlockBegin
  2
*Paper_Space
 70
     0
 71
     0
 10
0.0
 20
0.0
 30
0.0
  3
*Paper_Space
  1

  0
ENDBLK
  5
1D
330
1B
100
AcDbEntity
 67
     1
  8
0
100
AcDbBlockEnd
  0
BLOCK
  5
24
330
23
100
AcDbEntity
  8
0
100
AcDbBlockBegin
  2
*Paper_Space0
 70
     0
 71
     0
 10
0.0
 20
0.0
 30
0.0
  3
*Paper_Space0
  1

  0
ENDBLK
  5
25
330
23
100
AcDbEntity
  8
0
100
AcDbBlockEnd
  0
BLOCK
  5
49
330
47
100
AcDbEntity
  8
0
100
AcDbBlockBegin
  2
block 2
 70
     0
 71
     0
 10
0.0
 20
0.0
 30
0.0
  3
block 2
  1

  0
SPLINE
  5
4B
330
47
100
AcDbEntity
  8
Layer 1
 62
   177
420
  3027090
370
     9
100
AcDbSpline
210
0.0
220
0.0
230
1.0
 70
    11
 71
     3
 72
    35
 73
    31
 74
     0
 42
0.0000000001
 43
0.0000000001
 40
0.0
 40
0.0
 40
0.0
 40
0.0
 40
1.0
 40
1.0
 40
1.0
 40
2.0
 40
2.0
 40
2.0
 40
3.0
 40
3.0
 40
3.0
 40
4.0
 40
4.0
 40
4.0
 40
5.0
 40
5.0
 40
5.0
 40
6.0
 40
6.0
 40
6.0
 40
7.0
 40
7.0
 40
7.0
 40
8.0
 40
8.0
 40
8.0
 40
9.0
 40
9.0
 40
9.0
 40
10.0
 40
10.0
 40
10.0
 40
10.0
 10
23.48711072546503
 20
-46.1101915032294
 30
0.0
 10
23.48573268727093
 20
-46.10002847154791
 30
0.0
 10
23.48211533701142
 20
-46.08831514689806
 30
0.0
 10
23.48418239430257
 20
-46.07953015341067
 30
0.0
 10
23.5859849658917
 20
-45.70435925506697
 30
0.0
 10
23.48831650888487
 20
-45.40739202423843
 30
0.0
 10
23.18273653934321
 20
-45.1710584739503
 30
0.0
 10
22.8874918562573
 20
-44.94264864327823
 30
0.0
 10
22.54797769618592
 20
-44.91887748443001
 30
0.0
 10
22.22103813463571
 20
-45.10577391450481
 30
0.0
 10
21.85051811519709
 20
-45.31902532504177
 30
0.0
 10
21.48120387917831
 20
-45.53537732151546
 30
0.0
 10
21.1087890572228
 20
-45.74587265566423
 30
0.0
 10
21.03041313493337
 20
-45.79014213264969
 30
0.0
 10
21.00405815447121
 20
-45.82045897291989
 30
0.0
 10
21.05694037016979
 20
-45.91158174850474
 30
0.0
 10
21.58111164825056
 20
-46.81109617970348
 30
0.0
 10
22.10132106652328
 20
-47.71267766819336
 30
0.0
 10
22.61877440840781
 20
-48.61615395920013
 30
0.0
 10
22.66769476429835
 20
-48.70159232723432
 30
0.0
 10
22.70455728599053
 20
-48.71072183027024
 30
0.0
 10
22.78861761583062
 20
-48.66094020050838
 30
0.0
 10
23.18377006798878
 20
-48.42667370751139
 30
0.0
 10
23.58529594679465
 20
-48.20222573664736
 30
0.0
 10
23.98113741804985
 20
-47.96778698887611
 30
0.0
 10
24.19938421704043
 20
-47.83825139863072
 30
0.0
 10
24.36802164104341
 20
-47.66255152888298
 30
0.0
 10
24.43950737236235
 20
-47.40813122729728
 30
0.0
 10
24.61848008282108
 20
-46.77475042233409
 30
0.0
 10
24.17526854864368
 20
-46.16961940034996
 30
0.0
 10
23.48711072546503
 20
-46.1101915032294
 30
0.0
  0
SPLINE
  5
4C
330
47
100
AcDbEntity
  8
Layer 1
 62
   177
420
  3027090
370
     9
100
AcDbSpline
210
0.0
220
0.0
230
1.0
 70
    11
 71
     3
 72
    29
 73
    25
 74
     0
 42
0.0000000001
 43
0.0000000001
 40
0.0
 40
0.0
 40
0.0
 40
0.0
 40
1.0
 40
1.0
 40
1.0
 40
2.0
 40
2.0
 40
2.0
 40
3.0
 40
3.0
 40
3.0
 40
4.0
 40
4.0
 40
4.0
 40
5.0
 40
5.0
 40
5.0
 40
6.0
 40
6.0
 40
6.0
 40
7.0
 40
7.0
 40
7.0
 40
8.0
 40
8.0
 40
8.0
 40
8.0
 10
22.97137993132313
 20
-45.66973604544021
 30
0.0
 10
22.8571750159871
 20
-45.49076333498148
 30
0.0
 10
22.68664278946723
 20
-45.42754583282714
 30
0.0
 10
22.49767930210128
 20
-45.49283039227263
 30
0.0
 10
22.34609510075028
 20
-45.54536809842268
 30
0.0
 10
22.22241617282981
 20
-45.64785968910887
 30
0.0
 10
22.10390488813722
 20
-45.70435925506697
 30
0.0
 10
21.96213920891919
 20
-45.78618027284165
 30
0.0
 10
21.84466145287217
 20
-45.85732149461206
 30
0.0
 10
21.72356634656564
 20
-45.92243379928328
 30
0.0
 10
21.66689452583328
 20
-45.95343965865053
 30
0.0
 10
21.6479465006644
 20
-45.98237846072663
 30
0.0
 10
21.6851535319051
 20
-46.04507919855818
 30
0.0
 10
21.80452609046901
 20
-46.24455022715414
 30
0.0
 10
21.91838649625652
 20
-46.44677733213831
 30
0.0
 10
22.03551974275501
 20
-46.64814316325116
 30
0.0
 10
22.05601806089225
 20
-46.68328313720071
 30
0.0
 10
22.07358804786702
 20
-46.73030869057437
 30
0.0
 10
22.12905408517954
 20
-46.6962022452704
 30
0.0
 10
22.39828829735182
 20
-46.52997638810709
 30
0.0
 10
22.69439425430904
 20
-46.40664196973515
 30
0.0
 10
22.93968505285883
 20
-46.20355359087967
 30
0.0
 10
23.09006347078999
 20
-46.0798746629592
 30
0.0
 10
23.0923027828554
 20
-45.85869953280616
 30
0.0
 10
22.97137993132313
 20
-45.66973604544021
 30
0.0
  0
SPLINE
  5
4D
330
47
100
AcDbEntity
  8
Layer 1
 62
   177
420
  3027090
370
     9
100
AcDbSpline
210
0.0
220
0.0
230
1.0
 70
    11
 71
     3
 72
    32
 73
    28
 74
     0
 42
0.0000000001
 43
0.0000000001
 40
0.0
 40
0.0
 40
0.0
 40
0.0
 40
1.0
 40
1.0
 40
1.0
 40
2.0
 40
2.0
 40
2.0
 40
3.0
 40
3.0
 40
3.0
 40
4.0
 40
4.0
 40
4.0
 40
5.0
 40
5.0
 40
5.0
 40
6.0
 40
6.0
 40
6.0
 40
7.0
 40
7.0
 40
7.0
 40
8.0
 40
8.0
 40
8.0
 40
9.0
 40
9.0
 40
9.0
 40
9.0
 10
23.90603433647141
 20
-46.84606389887876
 30
0.0
 10
23.76220159996223
 20
-46.59061006864749
 30
0.0
 10
23.47470838171813
 20
-46.48966877092967
 30
0.0
 10
23.22976209271686
 20
-46.62247720188605
 30
0.0
 10
22.9517428870572
 20
-46.77354463891425
 30
0.0
 10
22.68095838191657
 20
-46.93977049607756
 30
0.0
 10
22.40414495967674
 20
-47.0947997929138
 30
0.0
 10
22.33920490977978
 20
-47.13183456938024
 30
0.0
 10
22.32800834945272
 20
-47.16197915487617
 30
0.0
 10
22.36728243798457
 20
-47.22829724296723
 30
0.0
 10
22.51404350565621
 20
-47.47307127719424
 30
0.0
 10
22.65718722306834
 20
-47.72008462348665
 30
0.0
 10
22.79550780680112
 20
-47.96950953661874
 30
0.0
 10
22.83564316920429
 20
-48.04116752271193
 30
0.0
 10
22.86888834063695
 20
-48.05477564987867
 30
0.0
 10
22.94106309105293
 20
-48.00964489902189
 30
0.0
 10
23.0743882863321
 20
-47.92489555008475
 30
0.0
 10
23.21408690825898
 20
-47.84910344940926
 30
0.0
 10
23.35137396334618
 20
-47.76986625324851
 30
0.0
 10
23.35137396334618
 20
-47.76986625324851
 30
0.0
 10
23.35068494424914
 20
-47.76900497937719
 30
0.0
 10
23.35034043470061
 20
-47.76831596028015
 30
0.0
 10
23.48779974456208
 20
-47.68873425457087
 30
0.0
 10
23.62801513081175
 20
-47.61518146596079
 30
0.0
 10
23.76151258086518
 20
-47.52957084315234
 30
0.0
 10
23.99285074269971
 20
-47.38039820864101
 30
0.0
 10
24.04969481820633
 20
-47.10013969091594
 30
0.0
 10
23.90603433647141
 20
-46.84606389887876
 30
0.0
  0
SPLINE
  5
4E
330
47
100
AcDbEntity
  8
Layer 1
 62
   177
420
  3027090
370
     9
100
AcDbSpline
210
0.0
220
0.0
230
1.0
 70
    11
 71
     3
 72
    17
 73
    13
 74
     0
 42
0.0000000001
 43
0.0000000001
 40
0.0
 40
0.0
 40
0.0
 40
0.0
 40
1.0
 40
1.0
 40
1.0
 40
2.0
 40
2.0
 40
2.0
 40
3.0
 40
3.0
 40
3.0
 40
4.0
 40
4.0
 40
4.0
 40
4.0
 10
29.23163519234487
 20
-43.00805527353618
 30
0.0
 10
28.75896809176859
 20
-42.18416068823868
 30
0.0
 10
27.71579317883494
 20
-41.8975287438659
 30
0.0
 10
26.90137260612188
 20
-42.36709525850545
 30
0.0
 10
26.07661674695307
 20
-42.84131265205009
 30
0.0
 10
25.79549695535668
 20
-43.87604708104488
 30
0.0
 10
26.26747503683591
 20
-44.6975300995027
 30
0.0
 10
26.74565429018859
 20
-45.53262124512727
 30
0.0
 10
27.78469508853994
 20
-45.82011446337136
 30
0.0
 10
28.60807290951465
 20
-45.34606932460098
 30
0.0
 10
29.42456053951886
 20
-44.87701957428422
 30
0.0
 10
29.7036132738241
 20
-43.82936603721974
 30
0.0
 10
29.23163519234487
 20
-43.00805527353618
 30
0.0
  0
SPLINE
  5
4F
330
47
100
AcDbEntity
  8
Layer 1
 62
   177
420
  3027090
370
     9
100
AcDbSpline
210
0.0
220
0.0
230
1.0
 70
    11
 71
     3
 72
    17
 73
    13
 74
     0
 42
0.0000000001
 43
0.0000000001
 40
0.0
 40
0.0
 40
0.0
 40
0.0
 40
1.0
 40
1.0
 40
1.0
 40
2.0
 40
2.0
 40
2.0
 40
3.0
 40
3.0
 40
3.0
 40
4.0
 40
4.0
 40
4.0
 40
4.0
 10
28.80030923759159
 20
-43.26350910376746
 30
0.0
 10
28.46889105191056
 20
-42.67612032353236
 30
0.0
 10
27.72130533161134
 20
-42.46545273460934
 30
0.0
 10
27.14252929008937
 20
-42.79480386299922
 30
0.0
 10
26.57684461141135
 20
-43.11640352654729
 30
0.0
 10
26.37358397778161
 20
-43.87673610014193
 30
0.0
 10
26.69880099158919
 20
-44.45051675321029
 30
0.0
 10
27.03021917727023
 20
-45.03359916408883
 30
0.0
 10
27.78469508853994
 20
-45.24409449823759
 30
0.0
 10
28.35864799638256
 20
-44.91508787939623
 30
0.0
 10
28.93053384693404
 20
-44.58745929874897
 30
0.0
 10
29.12966036598148
 20
-43.84469671212911
 30
0.0
 10
28.80030923759159
 20
-43.26350910376746
 30
0.0
  0
SPLINE
  5
50
330
47
100
AcDbEntity
  8
Layer 1
 62
   177
420
  3027090
370
     9
100
AcDbSpline
210
0.0
220
0.0
230
1.0
 70
    11
 71
     3
 72
    59
 73
    55
 74
     0
 42
0.0000000001
 43
0.0000000001
 40
0.0
 40
0.0
 40
0.0
 40
0.0
 40
1.0
 40
1.0
 40
1.0
 40
2.0
 40
2.0
 40
2.0
 40
3.0
 40
3.0
 40
3.0
 40
4.0
 40
4.0
 40
4.0
 40
5.0
 40
5.0
 40
5.0
 40
6.0
 40
6.0
 40
6.0
 40
7.0
 40
7.0
 40
7.0
 40
8.0
 40
8.0
 40
8.0
 40
9.0
 40
9.0
 40
9.0
 40
10.0
 40
10.0
 40
10.0
 40
11.0
 40
11.0
 40
11.0
 40
12.0
 40
12.0
 40
12.0
 40
13.0
 40
13.0
 40
13.0
 40
14.0
 40
14.0
 40
14.0
 40
15.0
 40
15.0
 40
15.0
 40
16.0
 40
16.0
 40
16.0
 40
17.0
 40
17.0
 40
17.0
 40
18.0
 40
18.0
 40
18.0
 40
18.0
 10
32.36736110301927
 20
-42.91400416678886
 30
0.0
 10
31.89055988786069
 20
-42.09768879155892
 30
0.0
 10
31.41927082547852
 20
-41.27741155652092
 30
0.0
 10
30.94660372490224
 20
-40.45851235967704
 30
0.0
 10
30.78261717980435
 20
-40.17446423691819
 30
0.0
 10
30.7874403134837
 20
-40.18290472085705
 30
0.0
 10
30.49598523543156
 20
-40.33552245085362
 30
0.0
 10
30.36162651150682
 20
-40.40528563442993
 30
0.0
 10
30.37333983615667
 20
-40.46247421948508
 30
0.0
 10
30.44017468857051
 20
-40.57478433230422
 30
0.0
 10
30.7901963898719
 20
-41.17130261557523
 30
0.0
 10
31.13401691929983
 20
-41.77195501342854
 30
0.0
 10
31.48059352511596
 20
-42.37105711831349
 30
0.0
 10
31.47370333414547
 20
-42.3801866213494
 30
0.0
 10
31.46819118136906
 20
-42.38897161483678
 30
0.0
 10
31.46130099039857
 20
-42.39758435354991
 30
0.0
 10
31.42064886367262
 20
-42.37915309270382
 30
0.0
 10
31.37999673694667
 20
-42.36003281276069
 30
0.0
 10
31.33865559112367
 20
-42.34125704236607
 30
0.0
 10
30.61311848193006
 20
-41.99967582500356
 30
0.0
 10
29.88620333454234
 20
-41.6624009769976
 30
0.0
 10
29.16342230173692
 20
-41.31375731389031
 30
0.0
 10
29.02148436774463
 20
-41.24433863986253
 30
0.0
 10
28.91261935041074
 20
-41.24175481824859
 30
0.0
 10
28.77550455009779
 20
-41.32598740286295
 30
0.0
 10
28.6597493417934
 20
-41.39764538895614
 30
0.0
 10
28.65768228450225
 20
-41.44380966845849
 30
0.0
 10
28.72176106052789
 20
-41.55319145011518
 30
0.0
 10
29.19718423749237
 20
-42.36468369166577
 30
0.0
 10
29.6650282043893
 20
-43.1806545573472
 30
0.0
 10
30.13493922857738
 20
-43.99507513006026
 30
0.0
 10
30.30719400283987
 20
-44.29393716340569
 30
0.0
 10
30.30512694554872
 20
-44.28911402972633
 30
0.0
 10
30.60278319547431
 20
-44.12461072030565
 30
0.0
 10
30.7075140982259
 20
-44.06759439002477
 30
0.0
 10
30.71647134648755
 20
-44.02625324420177
 30
0.0
 10
30.65583766594715
 20
-43.92427841783838
 30
0.0
 10
30.32855359484842
 20
-43.36927353516463
 30
0.0
 10
30.00815971472018
 20
-42.80979002836006
 30
0.0
 10
29.688454853689
 20
-42.25030652155548
 30
0.0
 10
29.66158310890405
 20
-42.20517577069871
 30
0.0
 10
29.61472981030465
 20
-42.16486815352128
 30
0.0
 10
29.62988823043975
 20
-42.09079860058841
 30
0.0
 10
29.69603406375655
 20
-42.11956514789025
 30
0.0
 10
29.7532226488117
 20
-42.14385307106126
 30
0.0
 10
29.81041123386684
 20
-42.1698635419749
 30
0.0
 10
30.50632052188731
 20
-42.498697906042
 30
0.0
 10
31.20636392449008
 20
-42.81995306004154
 30
0.0
 10
31.8988281170253
 20
-43.15843369146734
 30
0.0
 10
32.05454643295859
 20
-43.23508706601415
 30
0.0
 10
32.16823458397183
 20
-43.23043618710906
 30
0.0
 10
32.31361761344937
 20
-43.14034694016978
 30
0.0
 10
32.42937282175377
 20
-43.06920571839937
 30
0.0
 10
32.43143987904492
 20
-43.02390271276833
 30
0.0
 10
32.36736110301927
 20
-42.91400416678886
 30
0.0
  0
SPLINE
  5
51
330
47
100
AcDbEntity
  8
Layer 1
 62
   177
420
  3027090
370
     9
100
AcDbSpline
210
0.0
220
0.0
230
1.0
 70
    11
 71
     3
 72
    65
 73
    61
 74
     0
 42
0.0000000001
 43
0.0000000001
 40
0.0
 40
0.0
 40
0.0
 40
0.0
 40
1.0
 40
1.0
 40
1.0
 40
2.0
 40
2.0
 40
2.0
 40
3.0
 40
3.0
 40
3.0
 40
4.0
 40
4.0
 40
4.0
 40
5.0
 40
5.0
 40
5.0
 40
6.0
 40
6.0
 40
6.0
 40
7.0
 40
7.0
 40
7.0
 40
8.0
 40
8.0
 40
8.0
 40
9.0
 40
9.0
 40
9.0
 40
10.0
 40
10.0
 40
10.0
 40
11.0
 40
11.0
 40
11.0
 40
12.0
 40
12.0
 40
12.0
 40
13.0
 40
13.0
 40
13.0
 40
14.0
 40
14.0
 40
14.0
 40
15.0
 40
15.0
 40
15.0
 40
16.0
 40
16.0
 40
16.0
 40
17.0
 40
17.0
 40
17.0
 40
18.0
 40
18.0
 40
18.0
 40
19.0
 40
19.0
 40
19.0
 40
20.0
 40
20.0
 40
20.0
 40
20.0
 10
34.20290797756039
 20
-38.19077825651134
 30
0.0
 10
33.83979491341506
 20
-38.35114745134972
 30
0.0
 10
33.51595593780157
 20
-38.58386365137834
 30
0.0
 10
33.16593423650018
 20
-38.76748724074216
 30
0.0
 10
33.04949000909874
 20
-38.82794866650829
 30
0.0
 10
33.03502060806069
 20
-38.87531872943048
 30
0.0
 10
33.10254447957158
 20
-38.99072942818635
 30
0.0
 10
33.59037000028297
 20
-39.82530380948812
 30
0.0
 10
34.07199434912089
 20
-40.6640123053722
 30
0.0
 10
34.55499673615292
 20
-41.50151501783643
 30
0.0
 10
34.70175780382456
 20
-41.75455728122803
 30
0.0
 10
34.69762368924226
 20
-41.74542777819212
 30
0.0
 10
34.95945094612125
 20
-41.61106905426738
 30
0.0
 10
35.0993218228224
 20
-41.53889430385139
 30
0.0
 10
35.10069986101649
 20
-41.48291150221608
 30
0.0
 10
35.02559677943805
 20
-41.354237185842
 30
0.0
 10
34.59633788197592
 20
-40.62646076458297
 30
0.0
 10
34.17603623277544
 20
-39.89299993577328
 30
0.0
 10
33.7550455644779
 20
-39.15953910696359
 30
0.0
 10
33.73230793427525
 20
-39.120437273206
 30
0.0
 10
33.64618054714401
 20
-39.06686603841037
 30
0.0
 10
33.73713106795461
 20
-39.01673989909998
 30
0.0
 10
33.9782877519221
 20
-38.88582627066049
 30
0.0
 10
34.19808484388103
 20
-38.71288247730095
 30
0.0
 10
34.46060111985707
 20
-38.62744410926675
 30
0.0
 10
34.75067815971511
 20
-38.53425427639074
 30
0.0
 10
35.00768228291475
 20
-38.65965575205384
 30
0.0
 10
35.14548610232474
 20
-38.95352239694565
 30
0.0
 10
35.26055229153209
 20
-39.19709064775281
 30
0.0
 10
35.18338215266249
 20
-39.4809665157374
 30
0.0
 10
34.94980467876255
 20
-39.63547904825086
 30
0.0
 10
34.8002875347027
 20
-39.73383652435474
 30
0.0
 10
34.64319118057531
 20
-39.82289224264844
 30
0.0
 10
34.48678384554497
 20
-39.91056992274805
 30
0.0
 10
34.42063801222817
 20
-39.94760469921449
 30
0.0
 10
34.40961370667537
 20
-39.98326143748682
 30
0.0
 10
34.45164387159542
 20
-40.047684723061
 30
0.0
 10
34.49091796012727
 20
-40.10969644179549
 30
0.0
 10
34.52399087678567
 20
-40.16895208414179
 30
0.0
 10
34.60185003475232
 20
-40.19840765054068
 30
0.0
 10
35.14135198774244
 20
-40.39822318868517
 30
0.0
 10
35.68016492163552
 20
-40.60200058663769
 30
0.0
 10
36.21691079823744
 20
-40.80646700368727
 30
0.0
 10
36.26376409683684
 20
-40.82386473588779
 30
0.0
 10
36.30303818536868
 20
-40.83282198414943
 30
0.0
 10
36.35126952216218
 20
-40.80388318207333
 30
0.0
 10
36.50767685719253
 20
-40.70948756577749
 30
0.0
 10
36.66752928770812
 20
-40.61957057361247
 30
0.0
 10
36.85011934842636
 20
-40.51397839698956
 30
0.0
 10
36.33197698744478
 20
-40.32260334278394
 30
0.0
 10
35.84070637124816
 20
-40.14156357503406
 30
0.0
 10
35.32876518214003
 20
-39.95346136153941
 30
0.0
 10
35.35288085053678
 20
-39.92521157856036
 30
0.0
 10
35.36252711789548
 20
-39.91280923481347
 30
0.0
 10
35.37286240435123
 20
-39.90230169358345
 30
0.0
 10
35.76009113689332
 20
-39.50267061729447
 30
0.0
 10
35.79798718723106
 20
-39.00606010309571
 30
0.0
 10
35.47759330710282
 20
-38.53546005981058
 30
0.0
 10
35.19371743911824
 20
-38.12049830861224
 30
0.0
 10
34.68728840278651
 20
-37.97752684597437
 30
0.0
 10
34.20290797756039
 20
-38.19077825651134
 30
0.0
  0
SPLINE
  5
52
330
47
100
AcDbEntity
  8
Layer 1
 62
   177
420
  3027090
370
     9
100
AcDbSpline
210
0.0
220
0.0
230
1.0
 70
    11
 71
     3
 72
    65
 73
    61
 74
     0
 42
0.0000000001
 43
0.0000000001
 40
0.0
 40
0.0
 40
0.0
 40
0.0
 40
1.0
 40
1.0
 40
1.0
 40
2.0
 40
2.0
 40
2.0
 40
3.0
 40
3.0
 40
3.0
 40
4.0
 40
4.0
 40
4.0
 40
5.0
 40
5.0
 40
5.0
 40
6.0
 40
6.0
 40
6.0
 40
7.0
 40
7.0
 40
7.0
 40
8.0
 40
8.0
 40
8.0
 40
9.0
 40
9.0
 40
9.0
 40
10.0
 40
10.0
 40
10.0
 40
11.0
 40
11.0
 40
11.0
 40
12.0
 40
12.0
 40
12.0
 40
13.0
 40
13.0
 40
13.0
 40
14.0
 40
14.0
 40
14.0
 40
15.0
 40
15.0
 40
15.0
 40
16.0
 40
16.0
 40
16.0
 40
17.0
 40
17.0
 40
17.0
 40
18.0
 40
18.0
 40
18.0
 40
19.0
 40
19.0
 40
19.0
 40
20.0
 40
20.0
 40
20.0
 40
20.0
 10
25.65769313594669
 20
-45.53623859538678
 30
0.0
 10
25.68387586163459
 20
-45.50712753853642
 30
0.0
 10
25.69421114809034
 20
-45.49438068524099
 30
0.0
 10
25.70454643454609
 20
-45.48404539878524
 30
0.0
 10
26.09177516708817
 20
-45.0856201059161
 30
0.0
 10
26.12898219832887
 20
-44.58625351532913
 30
0.0
 10
25.80789929910358
 20
-44.11685925546384
 30
0.0
 10
25.52333441202195
 20
-43.70224201381402
 30
0.0
 10
25.01776664956153
 20
-43.560476334596
 30
0.0
 10
24.53373073388393
 20
-43.77372774513296
 30
0.0
 10
24.1651055169622
 20
-43.93650850681102
 30
0.0
 10
23.83661566244362
 20
-44.1721530380021
 30
0.0
 10
23.48280435610847
 20
-44.35887721330264
 30
0.0
 10
23.37807345335687
 20
-44.41382648629238
 30
0.0
 10
23.36480983573866
 20
-44.456890179858
 30
0.0
 10
23.42647704492463
 20
-44.56075980873828
 30
0.0
 10
23.93290608125636
 20
-45.42771808760141
 30
0.0
 10
24.43675129597415
 20
-46.29553764033584
 30
0.0
 10
24.93095024333324
 20
-47.16938611016946
 30
0.0
 10
25.01328802543071
 20
-47.31580266829258
 30
0.0
 10
25.0739217059711
 20
-47.32734373816817
 30
0.0
 10
25.2089694489929
 20
-47.23983831284282
 30
0.0
 10
25.4399631012789
 20
-47.0906656783315
 30
0.0
 10
25.44478623495825
 20
-47.09876165272184
 30
0.0
 10
25.30474310348284
 20
-46.85519340191468
 30
0.0
 10
24.8980495814491
 20
-46.15118813950387
 30
0.0
 10
24.49066704031831
 20
-45.44632160322175
 30
0.0
 10
24.08621283034998
 20
-44.74076604784259
 30
0.0
 10
24.06364745492159
 20
-44.701664214085
 30
0.0
 10
23.97889810598444
 20
-44.64860974361216
 30
0.0
 10
24.06950411724651
 20
-44.59900036862456
 30
0.0
 10
24.31117756553679
 20
-44.46808674018506
 30
0.0
 10
24.52942436452737
 20
-44.29462618250273
 30
0.0
 10
24.79297416914898
 20
-44.20987683356559
 30
0.0
 10
25.08253444468423
 20
-44.11668700068958
 30
0.0
 10
25.33816052968977
 20
-44.24329425977251
 30
0.0
 10
25.4771701325196
 20
-44.53733315943859
 30
0.0
 10
25.59154730262989
 20
-44.78141817456854
 30
0.0
 10
25.51368814466325
 20
-45.06374374958476
 30
0.0
 10
25.27890488734347
 20
-45.21877304642101
 30
0.0
 10
25.1483357684525
 20
-45.30541719787504
 30
0.0
 10
25.01466606362481
 20
-45.3951619352658
 30
0.0
 10
24.87100558188989
 20
-45.46010198516275
 30
0.0
 10
24.7235554951212
 20
-45.52607556370529
 30
0.0
 10
24.75197753287451
 20
-45.60014511663816
 30
0.0
 10
24.82208522599934
 20
-45.69988063093614
 30
0.0
 10
24.8484402064615
 20
-45.73794893604816
 30
0.0
 10
24.88047959447433
 20
-45.75879176373392
 30
0.0
 10
24.92061495687749
 20
-45.77360567432049
 30
0.0
 10
25.46270073148155
 20
-45.97858885569286
 30
0.0
 10
26.00702581815102
 20
-46.18322752751669
 30
0.0
 10
26.5499728666264
 20
-46.38821070888906
 30
0.0
 10
26.58924695515825
 20
-46.40285236470137
 30
0.0
 10
26.62507594820484
 20
-46.41990558735336
 30
0.0
 10
26.66917317041604
 20
-46.39372286166546
 30
0.0
 10
26.83178167731984
 20
-46.2970879333042
 30
0.0
 10
26.99370116512658
 20
-46.20458711952524
 30
0.0
 10
27.18042534042712
 20
-46.09658337606266
 30
0.0
 10
26.66159396034849
 20
-45.90538057663129
 30
0.0
 10
26.16963432505482
 20
-45.72451306365568
 30
0.0
 10
25.65769313594669
 20
-45.53623859538678
 30
0.0
  0
SPLINE
  5
53
330
47
100
AcDbEntity
  8
Layer 1
 62
   177
420
  3027090
370
     9
100
AcDbSpline
210
0.0
220
0.0
230
1.0
 70
    11
 71
     3
 72
    71
 73
    67
 74
     0
 42
0.0000000001
 43
0.0000000001
 40
0.0
 40
0.0
 40
0.0
 40
0.0
 40
1.0
 40
1.0
 40
1.0
 40
2.0
 40
2.0
 40
2.0
 40
3.0
 40
3.0
 40
3.0
 40
4.0
 40
4.0
 40
4.0
 40
5.0
 40
5.0
 40
5.0
 40
6.0
 40
6.0
 40
6.0
 40
7.0
 40
7.0
 40
7.0
 40
8.0
 40
8.0
 40
8.0
 40
9.0
 40
9.0
 40
9.0
 40
10.0
 40
10.0
 40
10.0
 40
11.0
 40
11.0
 40
11.0
 40
12.0
 40
12.0
 40
12.0
 40
13.0
 40
13.0
 40
13.0
 40
14.0
 40
14.0
 40
14.0
 40
15.0
 40
15.0
 40
15.0
 40
16.0
 40
16.0
 40
16.0
 40
17.0
 40
17.0
 40
17.0
 40
18.0
 40
18.0
 40
18.0
 40
19.0
 40
19.0
 40
19.0
 40
20.0
 40
20.0
 40
20.0
 40
21.0
 40
21.0
 40
21.0
 40
22.0
 40
22.0
 40
22.0
 40
22.0
 10
32.87447915844805
 20
-39.09167072590417
 30
0.0
 10
32.8241807643634
 20
-39.0051988292244
 30
0.0
 10
32.7883517713168
 20
-39.00089245986783
 30
0.0
 10
32.70773653696195
 20
-39.04843477756428
 30
0.0
 10
32.19235025236858
 20
-39.35108641594348
 30
0.0
 10
31.6755859295811
 20
-39.65012070406316
 30
0.0
 10
31.15606553040543
 20
-39.94398734895498
 30
0.0
 10
31.06787108598303
 20
-39.9939412334911
 30
0.0
 10
31.06649304778893
 20
-40.03080375518327
 30
0.0
 10
31.11403536548538
 20
-40.11228026340943
 30
0.0
 10
31.37655164146142
 20
-40.55824787397502
 30
0.0
 10
31.63355576466106
 20
-41.00766058002586
 30
0.0
 10
31.89262694515185
 20
-41.45603975743113
 30
0.0
 10
32.14894204925443
 20
-41.90011256547984
 30
0.0
 10
32.40732421064817
 20
-42.34246282578592
 30
0.0
 10
32.65881618107141
 20
-42.78877494590003
 30
0.0
 10
32.7139377088354
 20
-42.8890272245208
 30
0.0
 10
32.75596787375545
 20
-42.89109428181195
 30
0.0
 10
32.8489854518572
 20
-42.83648951837074
 30
0.0
 10
33.28926865487213
 20
-42.57500677104028
 30
0.0
 10
33.73506401066346
 20
-42.32161999810015
 30
0.0
 10
34.17879230916364
 20
-42.06547714877183
 30
0.0
 10
34.49022894103022
 20
-41.88581541921605
 30
0.0
 10
34.48402776915677
 20
-41.88857149560425
 30
0.0
 10
34.30832789940903
 20
-41.57437878734946
 30
0.0
 10
34.24976127615978
 20
-41.47068141324344
 30
0.0
 10
34.20566405394859
 20
-41.47843287808526
 30
0.0
 10
34.11609157133209
 20
-41.5314873485581
 30
0.0
 10
33.75366752628381
 20
-41.74680581638621
 30
0.0
 10
33.38366427116797
 20
-41.95230576208137
 30
0.0
 10
33.02124022611969
 20
-42.16900226810358
 30
0.0
 10
32.92408853343564
 20
-42.22705212703004
 30
0.0
 10
32.8806803303215
 20
-42.21223821644347
 30
0.0
 10
32.82900389804275
 20
-42.11543103330795
 30
0.0
 10
32.7249620143882
 20
-41.91940510019723
 30
0.0
 10
32.61402993976316
 20
-41.72716877212029
 30
0.0
 10
32.49620767416761
 20
-41.53889430385139
 30
0.0
 10
32.44039712730657
 20
-41.44949407600916
 30
0.0
 10
32.45555554744167
 20
-41.40763616586337
 30
0.0
 10
32.54581704915521
 20
-41.35733777177872
 30
0.0
 10
32.846229375469
 20
-41.19111191461542
 30
0.0
 10
33.14181856810344
 20
-41.01558429964194
 30
0.0
 10
33.43878579893197
 20
-40.8440185444765
 30
0.0
 10
33.74539929711921
 20
-40.66694063653465
 30
0.0
 10
33.74057616343985
 20
-40.66986896769712
 30
0.0
 10
33.56832138917736
 20
-40.36239419563857
 30
0.0
 10
33.51388888051042
 20
-40.2662760316001
 30
0.0
 10
33.47323675378447
 20
-40.25215114011058
 30
0.0
 10
33.37677408019748
 20
-40.30985648948851
 30
0.0
 10
33.01848414973149
 20
-40.52448593821958
 30
0.0
 10
32.65330402829501
 20
-40.72705755275226
 30
0.0
 10
32.29501409782902
 20
-40.93996445374071
 30
0.0
 10
32.21095376798893
 20
-40.98991833827683
 30
0.0
 10
32.17030164126298
 20
-40.97992756136961
 30
0.0
 10
32.12413736176063
 20
-40.89397242901262
 30
0.0
 10
32.01527234442674
 20
-40.69415689086813
 30
0.0
 10
31.9029622316076
 20
-40.49640841001479
 30
0.0
 10
31.7830729087209
 20
-40.30382757238932
 30
0.0
 10
31.72450628547165
 20
-40.21167126815889
 30
0.0
 10
31.73139647644215
 20
-40.16722953639917
 30
0.0
 10
31.83199326461145
 20
-40.11210800863517
 30
0.0
 10
32.14136283918688
 20
-39.94192029166383
 30
0.0
 10
32.44590928008297
 20
-39.76088052391395
 30
0.0
 10
32.7525227782702
 20
-39.5838026159721
 30
0.0
 10
33.06120333374859
 20
-39.40534666983616
 30
0.0
 10
33.05775823826334
 20
-39.40758598190158
 30
0.0
 10
32.87447915844805
 20
-39.09167072590417
 30
0.0
  0
SPLINE
  5
54
330
47
100
AcDbEntity
  8
Layer 1
 62
   177
420
  3027090
370
     9
100
AcDbSpline
210
0.0
220
0.0
230
1.0
 70
    11
 71
     3
 72
    44
 73
    40
 74
     0
 42
0.0000000001
 43
0.0000000001
 40
0.0
 40
0.0
 40
0.0
 40
0.0
 40
1.0
 40
1.0
 40
1.0
 40
2.0
 40
2.0
 40
2.0
 40
3.0
 40
3.0
 40
3.0
 40
4.0
 40
4.0
 40
4.0
 40
5.0
 40
5.0
 40
5.0
 40
6.0
 40
6.0
 40
6.0
 40
7.0
 40
7.0
 40
7.0
 40
8.0
 40
8.0
 40
8.0
 40
9.0
 40
9.0
 40
9.0
 40
10.0
 40
10.0
 40
10.0
 40
11.0
 40
11.0
 40
11.0
 40
12.0
 40
12.0
 40
12.0
 40
13.0
 40
13.0
 40
13.0
 40
13.0
 10
37.56601019026127
 20
-36.29545897530114
 30
0.0
 10
37.47574868854773
 20
-36.25497910334945
 30
0.0
 10
37.35585936566104
 20
-36.40449624740929
 30
0.0
 10
37.24079317645369
 20
-36.45255532942853
 30
0.0
 10
37.14226344557554
 20
-36.49337971092874
 30
0.0
 10
37.1333061973139
 20
-36.56004230856833
 30
0.0
 10
37.14777559835195
 20
-36.6534043962186
 30
0.0
 10
37.20427516431005
 20
-37.02771402069099
 30
0.0
 10
37.25732963478289
 20
-37.40271266426043
 30
0.0
 10
37.30969508615869
 20
-37.77719454350709
 30
0.0
 10
37.37377386218434
 20
-38.22454019226679
 30
0.0
 10
37.43509656182178
 20
-38.67240260534926
 30
0.0
 10
37.49986435694448
 20
-39.1397298079234
 30
0.0
 10
37.43991969550113
 20
-39.0956325857122
 30
0.0
 10
37.39651149238698
 20
-39.06600476453906
 30
0.0
 10
37.35585936566104
 20
-39.03396537652623
 30
0.0
 10
36.81015624079746
 20
-38.60470647906411
 30
0.0
 10
36.26445311593389
 20
-38.1744140529564
 30
0.0
 10
35.71874999107031
 20
-37.74429388162296
 30
0.0
 10
35.41489256927128
 20
-37.50537650972088
 30
0.0
 10
35.41764864565948
 20
-37.51071640772302
 30
0.0
 10
35.08140732629909
 20
-37.69692381870077
 30
0.0
 10
34.9601399652183
 20
-37.76444769021167
 30
0.0
 10
34.97323132806225
 20
-37.7987263902899
 30
0.0
 10
35.07038302074629
 20
-37.87331270754557
 30
0.0
 10
35.93579100664105
 20
-38.54889593220305
 30
0.0
 10
36.80326604982697
 20
-39.2251681759576
 30
0.0
 10
37.66385090204237
 20
-39.90884737500543
 30
0.0
 10
37.76238063292052
 20
-39.98739555206912
 30
0.0
 10
37.82852646623731
 20
-39.96758625302894
 30
0.0
 10
37.91120875788331
 20
-39.91091443229658
 30
0.0
 10
37.99664712591751
 20
-39.85183104472454
 30
0.0
 10
38.10482312415435
 20
-39.83632811504092
 30
0.0
 10
38.08001843666055
 20
-39.67440862723418
 30
0.0
 10
37.92912325440661
 20
-38.66516790483023
 30
0.0
 10
37.79131943499662
 20
-37.65523816332925
 30
0.0
 10
37.64455836732498
 20
-36.645136167054
 30
0.0
 10
37.62664387080167
 20
-36.52283527732762
 30
0.0
 10
37.66178384475122
 20
-36.33800590454397
 30
0.0
 10
37.56601019026127
 20
-36.29545897530114
 30
0.0
  0
SPLINE
  5
55
330
47
100
AcDbEntity
  8
Layer 1
 62
   177
420
  3027090
370
     9
100
AcDbSpline
210
0.0
220
0.0
230
1.0
 70
    11
 71
     3
 72
    47
 73
    43
 74
     0
 42
0.0000000001
 43
0.0000000001
 40
0.0
 40
0.0
 40
0.0
 40
0.0
 40
1.0
 40
1.0
 40
1.0
 40
2.0
 40
2.0
 40
2.0
 40
3.0
 40
3.0
 40
3.0
 40
4.0
 40
4.0
 40
4.0
 40
5.0
 40
5.0
 40
5.0
 40
6.0
 40
6.0
 40
6.0
 40
7.0
 40
7.0
 40
7.0
 40
8.0
 40
8.0
 40
8.0
 40
9.0
 40
9.0
 40
9.0
 40
10.0
 40
10.0
 40
10.0
 40
11.0
 40
11.0
 40
11.0
 40
12.0
 40
12.0
 40
12.0
 40
13.0
 40
13.0
 40
13.0
 40
14.0
 40
14.0
 40
14.0
 40
14.0
 10
19.08565673350984
 20
-46.93477510762395
 30
0.0
 10
19.01262070922254
 20
-46.9864515399027
 30
0.0
 10
18.93424478693311
 20
-47.03278807417931
 30
0.0
 10
18.85242376915842
 20
-47.06896157677443
 30
0.0
 10
18.76698540112423
 20
-47.10651311756365
 30
0.0
 10
18.75613335034569
 20
-47.16301268352175
 30
0.0
 10
18.76922471318964
 20
-47.24569497516774
 30
0.0
 10
18.81004909468985
 20
-47.51027830843493
 30
0.0
 10
18.84587808773645
 20
-47.77623967989622
 30
0.0
 10
18.88377413807419
 20
-48.04116752271193
 30
0.0
 10
18.96301133423494
 20
-48.60340710590471
 30
0.0
 10
19.04190402084716
 20
-49.16530217954895
 30
0.0
 10
19.12406954817037
 20
-49.74959037384733
 30
0.0
 10
19.05947400782194
 20
-49.70239256569941
 30
0.0
 10
19.01227619967402
 20
-49.67104219678363
 30
0.0
 10
18.96817897746282
 20
-49.63693575147965
 30
0.0
 10
18.43057182698958
 20
-49.21353351634245
 30
0.0
 10
17.89399820516192
 20
-48.78978677165672
 30
0.0
 10
17.35604654514016
 20
-48.36690130084231
 30
0.0
 10
17.02927923836421
 20
-48.10938041331988
 30
0.0
 10
17.03048502178405
 20
-48.11127521583677
 30
0.0
 10
16.68011881093414
 20
-48.32366535250242
 30
0.0
 10
16.60088161477339
 20
-48.37172443452165
 30
0.0
 10
16.58107231573321
 20
-48.39428980995004
 30
0.0
 10
16.66754421241298
 20
-48.46164142668668
 30
0.0
 10
17.55121120437956
 20
-49.14945474031681
 30
0.0
 10
18.43315564860352
 20
-49.8401963851094
 30
0.0
 10
19.3113104877937
 20
-50.53679469222691
 30
0.0
 10
19.43757323732811
 20
-50.63635795175063
 30
0.0
 10
19.50113524903097
 20
-50.52508136757707
 30
0.0
 10
19.58760714571074
 20
-50.48856335543342
 30
0.0
 10
19.6649495393546
 20
-50.45549043877502
 30
0.0
 10
19.72627223899205
 20
-50.41862791708284
 30
0.0
 10
19.70611843040333
 20
-50.30252819922993
 30
0.0
 10
19.6415228900549
 20
-49.91943358127014
 30
0.0
 10
19.59122449597025
 20
-49.53323837737364
 30
0.0
 10
19.53644747775478
 20
-49.14773219257418
 30
0.0
 10
19.4353339252627
 20
-48.43408066280467
 30
0.0
 10
19.33284233457651
 20
-47.72094589735796
 30
0.0
 10
19.23724093486083
 20
-47.00712211281419
 30
0.0
 10
19.22104898608016
 20
-46.88395994921651
 30
0.0
 10
19.18608126690487
 20
-46.86449515972485
 30
0.0
 10
19.08565673350984
 20
-46.93477510762395
 30
0.0
  0
SPLINE
  5
56
330
47
100
AcDbEntity
  8
Layer 1
 62
   177
420
  3027090
370
     9
100
AcDbSpline
210
0.0
220
0.0
230
1.0
 70
    11
 71
     3
 72
    65
 73
    61
 74
     0
 42
0.0000000001
 43
0.0000000001
 40
0.0
 40
0.0
 40
0.0
 40
0.0
 40
1.0
 40
1.0
 40
1.0
 40
2.0
 40
2.0
 40
2.0
 40
3.0
 40
3.0
 40
3.0
 40
4.0
 40
4.0
 40
4.0
 40
5.0
 40
5.0
 40
5.0
 40
6.0
 40
6.0
 40
6.0
 40
7.0
 40
7.0
 40
7.0
 40
8.0
 40
8.0
 40
8.0
 40
9.0
 40
9.0
 40
9.0
 40
10.0
 40
10.0
 40
10.0
 40
11.0
 40
11.0
 40
11.0
 40
12.0
 40
12.0
 40
12.0
 40
13.0
 40
13.0
 40
13.0
 40
14.0
 40
14.0
 40
14.0
 40
15.0
 40
15.0
 40
15.0
 40
16.0
 40
16.0
 40
16.0
 40
17.0
 40
17.0
 40
17.0
 40
18.0
 40
18.0
 40
18.0
 40
19.0
 40
19.0
 40
19.0
 40
20.0
 40
20.0
 40
20.0
 40
20.0
 10
22.20708549792045
 20
-48.41289332557039
 30
0.0
 10
22.18624267023469
 20
-48.41030950395646
 30
0.0
 10
22.16143798274089
 20
-48.43631997487009
 30
0.0
 10
22.1388726073125
 20
-48.44941133771404
 30
0.0
 10
22.04688855785633
 20
-48.50246580818688
 30
0.0
 10
21.9505981390436
 20
-48.54863008768923
 30
0.0
 10
21.86550428055793
 20
-48.61012504210094
 30
0.0
 10
21.76008435870929
 20
-48.68574488800218
 30
0.0
 10
21.70530734049381
 20
-48.67213676083544
 30
0.0
 10
21.63812797853144
 20
-48.55345322136858
 30
0.0
 10
21.32272948685682
 20
-47.99138589295007
 30
0.0
 10
20.99682345395219
 20
-47.43586424595354
 30
0.0
 10
20.67453477130706
 20
-46.87741426779453
 30
0.0
 10
20.54637721925577
 20
-46.65589462809297
 30
0.0
 10
20.54637721925577
 20
-46.65589462809297
 30
0.0
 10
20.77116969966832
 20
-46.52618678307331
 30
0.0
 10
21.10224337580083
 20
-46.33515623841621
 30
0.0
 10
21.09931504463837
 20
-46.33653427661032
 30
0.0
 10
20.89415960849174
 20
-46.00614961957486
 30
0.0
 10
20.85040689582907
 20
-45.93638643599854
 30
0.0
 10
20.81836750781624
 20
-45.92587889476853
 30
0.0
 10
20.746020502626
 20
-45.96773680491432
 30
0.0
 10
20.30918239509632
 20
-46.2245686733397
 30
0.0
 10
19.87079399459827
 20
-46.47933348447392
 30
0.0
 10
19.42844373429219
 20
-46.72824163328322
 30
0.0
 10
19.32181802902371
 20
-46.78835854950083
 30
0.0
 10
19.36195339142687
 20
-46.8569159496573
 30
0.0
 10
19.41345756893136
 20
-46.90135768141702
 30
0.0
 10
19.50802544000147
 20
-46.98128389667482
 30
0.0
 10
19.45841606501387
 20
-47.22502440225625
 30
0.0
 10
19.67339002329346
 20
-47.1540554352601
 30
0.0
 10
19.80103081102197
 20
-47.11254203466284
 30
0.0
 10
19.91575249068078
 20
-47.02658690230586
 30
0.0
 10
20.03064642511387
 20
-46.95182833027594
 30
0.0
 10
20.10798881875773
 20
-46.9010131718685
 30
0.0
 10
20.1434733022558
 20
-46.91927217794032
 30
0.0
 10
20.1861924862729
 20
-46.99540878816435
 30
0.0
 10
20.35913627963244
 20
-47.30408934364273
 30
0.0
 10
20.53845349963969
 20
-47.60949705841013
 30
0.0
 10
20.71535915280727
 20
-47.91611055659736
 30
0.0
 10
20.86866590190089
 20
-48.18121065418734
 30
0.0
 10
21.02197265099451
 20
-48.4468275161001
 30
0.0
 10
21.1749348905396
 20
-48.71192761369008
 30
0.0
 10
21.30223116871958
 20
-48.93241372474606
 30
0.0
 10
21.30223116871958
 20
-48.93241372474606
 30
0.0
 10
21.07967800037244
 20
-49.06091578634589
 30
0.0
 10
20.74240315236649
 20
-49.25590819081103
 30
0.0
 10
20.74378119056058
 20
-49.25453015261692
 30
0.0
 10
20.95341525083803
 20
-49.57974716642451
 30
0.0
 10
20.9935506132412
 20
-49.64244790425606
 30
0.0
 10
21.02266167009156
 20
-49.65519475755148
 30
0.0
 10
21.08915201295688
 20
-49.61626517856816
 30
0.0
 10
21.53115776371443
 20
-49.35788301717442
 30
0.0
 10
21.97505831698887
 20
-49.10156791307183
 30
0.0
 10
22.41982014413463
 20
-48.84766437580892
 30
0.0
 10
22.48596597745142
 20
-48.81011283501969
 30
0.0
 10
22.50749782423424
 20
-48.77032198216506
 30
0.0
 10
22.45427109898713
 20
-48.71485594485254
 30
0.0
 10
22.36297606862801
 20
-48.62080483810522
 30
0.0
 10
22.38226860334541
 20
-48.43511419145025
 30
0.0
 10
22.20708549792045
 20
-48.41289332557039
 30
0.0
  0
SPLINE
  5
57
330
47
100
AcDbEntity
  8
Layer 1
 62
   177
420
  3027090
370
     9
100
AcDbSpline
210
0.0
220
0.0
230
1.0
 70
    11
 71
     3
 72
   743
 73
   739
 74
     0
 42
0.0000000001
 43
0.0000000001
 40
0.0
 40
0.0
 40
0.0
 40
0.0
 40
1.0
 40
1.0
 40
1.0
 40
2.0
 40
2.0
 40
2.0
 40
3.0
 40
3.0
 40
3.0
 40
4.0
 40
4.0
 40
4.0
 40
5.0
 40
5.0
 40
5.0
 40
6.0
 40
6.0
 40
6.0
 40
7.0
 40
7.0
 40
7.0
 40
8.0
 40
8.0
 40
8.0
 40
9.0
 40
9.0
 40
9.0
 40
10.0
 40
10.0
 40
10.0
 40
11.0
 40
11.0
 40
11.0
 40
12.0
 40
12.0
 40
12.0
 40
13.0
 40
13.0
 40
13.0
 40
14.0
 40
14.0
 40
14.0
 40
15.0
 40
15.0
 40
15.0
 40
16.0
 40
16.0
 40
16.0
 40
17.0
 40
17.0
 40
17.0
 40
18.0
 40
18.0
 40
18.0
 40
19.0
 40
19.0
 40
19.0
 40
20.0
 40
20.0
 40
20.0
 40
21.0
 40
21.0
 40
21.0
 40
22.0
 40
22.0
 40
22.0
 40
23.0
 40
23.0
 40
23.0
 40
24.0
 40
24.0
 40
24.0
 40
25.0
 40
25.0
 40
25.0
 40
26.0
 40
26.0
 40
26.0
 40
27.0
 40
27.0
 40
27.0
 40
28.0
 40
28.0
 40
28.0
 40
29.0
 40
29.0
 40
29.0
 40
30.0
 40
30.0
 40
30.0
 40
31.0
 40
31.0
 40
31.0
 40
32.0
 40
32.0
 40
32.0
 40
33.0
 40
33.0
 40
33.0
 40
34.0
 40
34.0
 40
34.0
 40
35.0
 40
35.0
 40
35.0
 40
36.0
 40
36.0
 40
36.0
 40
37.0
 40
37.0
 40
37.0
 40
38.0
 40
38.0
 40
38.0
 40
39.0
 40
39.0
 40
39.0
 40
40.0
 40
40.0
 40
40.0
 40
41.0
 40
41.0
 40
41.0
 40
42.0
 40
42.0
 40
42.0
 40
43.0
 40
43.0
 40
43.0
 40
44.0
 40
44.0
 40
44.0
 40
45.0
 40
45.0
 40
45.0
 40
46.0
 40
46.0
 40
46.0
 40
47.0
 40
47.0
 40
47.0
 40
48.0
 40
48.0
 40
48.0
 40
49.0
 40
49.0
 40
49.0
 40
50.0
 40
50.0
 40
50.0
 40
51.0
 40
51.0
 40
51.0
 40
52.0
 40
52.0
 40
52.0
 40
53.0
 40
53.0
 40
53.0
 40
54.0
 40
54.0
 40
54.0
 40
55.0
 40
55.0
 40
55.0
 40
56.0
 40
56.0
 40
56.0
 40
57.0
 40
57.0
 40
57.0
 40
58.0
 40
58.0
 40
58.0
 40
59.0
 40
59.0
 40
59.0
 40
60.0
 40
60.0
 40
60.0
 40
61.0
 40
61.0
 40
61.0
 40
62.0
 40
62.0
 40
62.0
 40
63.0
 40
63.0
 40
63.0
 40
64.0
 40
64.0
 40
64.0
 40
65.0
 40
65.0
 40
65.0
 40
66.0
 40
66.0
 40
66.0
 40
67.0
 40
67.0
 40
67.0
 40
68.0
 40
68.0
 40
68.0
 40
69.0
 40
69.0
 40
69.0
 40
70.0
 40
70.0
 40
70.0
 40
71.0
 40
71.0
 40
71.0
 40
72.0
 40
72.0
 40
72.0
 40
73.0
 40
73.0
 40
73.0
 40
74.0
 40
74.0
 40
74.0
 40
75.0
 40
75.0
 40
75.0
 40
76.0
 40
76.0
 40
76.0
 40
77.0
 40
77.0
 40
77.0
 40
78.0
 40
78.0
 40
78.0
 40
79.0
 40
79.0
 40
79.0
 40
80.0
 40
80.0
 40
80.0
 40
81.0
 40
81.0
 40
81.0
 40
82.0
 40
82.0
 40
82.0
 40
83.0
 40
83.0
 40
83.0
 40
84.0
 40
84.0
 40
84.0
 40
85.0
 40
85.0
 40
85.0
 40
86.0
 40
86.0
 40
86.0
 40
87.0
 40
87.0
 40
87.0
 40
88.0
 40
88.0
 40
88.0
 40
89.0
 40
89.0
 40
89.0
 40
90.0
 40
90.0
 40
90.0
 40
91.0
 40
91.0
 40
91.0
 40
92.0
 40
92.0
 40
92.0
 40
93.0
 40
93.0
 40
93.0
 40
94.0
 40
94.0
 40
94.0
 40
95.0
 40
95.0
 40
95.0
 40
96.0
 40
96.0
 40
96.0
 40
97.0
 40
97.0
 40
97.0
 40
98.0
 40
98.0
 40
98.0
 40
99.0
 40
99.0
 40
99.0
 40
100.0
 40
100.0
 40
100.0
 40
101.0
 40
101.0
 40
101.0
 40
102.0
 40
102.0
 40
102.0
 40
103.0
 40
103.0
 40
103.0
 40
104.0
 40
104.0
 40
104.0
 40
105.0
 40
105.0
 40
105.0
 40
106.0
 40
106.0
 40
106.0
 40
107.0
 40
107.0
 40
107.0
 40
108.0
 40
108.0
 40
108.0
 40
109.0
 40
109.0
 40
109.0
 40
110.0
 40
110.0
 40
110.0
 40
111.0
 40
111.0
 40
111.0
 40
112.0
 40
112.0
 40
112.0
 40
113.0
 40
113.0
 40
113.0
 40
114.0
 40
114.0
 40
114.0
 40
115.0
 40
115.0
 40
115.0
 40
116.0
 40
116.0
 40
116.0
 40
117.0
 40
117.0
 40
117.0
 40
118.0
 40
118.0
 40
118.0
 40
119.0
 40
119.0
 40
119.0
 40
120.0
 40
120.0
 40
120.0
 40
121.0
 40
121.0
 40
121.0
 40
122.0
 40
122.0
 40
122.0
 40
123.0
 40
123.0
 40
123.0
 40
124.0
 40
124.0
 40
124.0
 40
125.0
 40
125.0
 40
125.0
 40
126.0
 40
126.0
 40
126.0
 40
127.0
 40
127.0
 40
127.0
 40
128.0
 40
128.0
 40
128.0
 40
129.0
 40
129.0
 40
129.0
 40
130.0
 40
130.0
 40
130.0
 40
131.0
 40
131.0
 40
131.0
 40
132.0
 40
132.0
 40
132.0
 40
133.0
 40
133.0
 40
133.0
 40
134.0
 40
134.0
 40
134.0
 40
135.0
 40
135.0
 40
135.0
 40
136.0
 40
136.0
 40
136.0
 40
137.0
 40
137.0
 40
137.0
 40
138.0
 40
138.0
 40
138.0
 40
139.0
 40
139.0
 40
139.0
 40
140.0
 40
140.0
 40
140.0
 40
141.0
 40
141.0
 40
141.0
 40
142.0
 40
142.0
 40
142.0
 40
143.0
 40
143.0
 40
143.0
 40
144.0
 40
144.0
 40
144.0
 40
145.0
 40
145.0
 40
145.0
 40
146.0
 40
146.0
 40
146.0
 40
147.0
 40
147.0
 40
147.0
 40
148.0
 40
148.0
 40
148.0
 40
149.0
 40
149.0
 40
149.0
 40
150.0
 40
150.0
 40
150.0
 40
151.0
 40
151.0
 40
151.0
 40
152.0
 40
152.0
 40
152.0
 40
153.0
 40
153.0
 40
153.0
 40
154.0
 40
154.0
 40
154.0
 40
155.0
 40
155.0
 40
155.0
 40
156.0
 40
156.0
 40
156.0
 40
157.0
 40
157.0
 40
157.0
 40
158.0
 40
158.0
 40
158.0
 40
159.0
 40
159.0
 40
159.0
 40
160.0
 40
160.0
 40
160.0
 40
161.0
 40
161.0
 40
161.0
 40
162.0
 40
162.0
 40
162.0
 40
163.0
 40
163.0
 40
163.0
 40
164.0
 40
164.0
 40
164.0
 40
165.0
 40
165.0
 40
165.0
 40
166.0
 40
166.0
 40
166.0
 40
167.0
 40
167.0
 40
167.0
 40
168.0
 40
168.0
 40
168.0
 40
169.0
 40
169.0
 40
169.0
 40
170.0
 40
170.0
 40
170.0
 40
171.0
 40
171.0
 40
171.0
 40
172.0
 40
172.0
 40
172.0
 40
173.0
 40
173.0
 40
173.0
 40
174.0
 40
174.0
 40
174.0
 40
175.0
 40
175.0
 40
175.0
 40
176.0
 40
176.0
 40
176.0
 40
177.0
 40
177.0
 40
177.0
 40
178.0
 40
178.0
 40
178.0
 40
179.0
 40
179.0
 40
179.0
 40
180.0
 40
180.0
 40
180.0
 40
181.0
 40
181.0
 40
181.0
 40
182.0
 40
182.0
 40
182.0
 40
183.0
 40
183.0
 40
183.0
 40
184.0
 40
184.0
 40
184.0
 40
185.0
 40
185.0
 40
185.0
 40
186.0
 40
186.0
 40
186.0
 40
187.0
 40
187.0
 40
187.0
 40
188.0
 40
188.0
 40
188.0
 40
189.0
 40
189.0
 40
189.0
 40
190.0
 40
190.0
 40
190.0
 40
191.0
 40
191.0
 40
191.0
 40
192.0
 40
192.0
 40
192.0
 40
193.0
 40
193.0
 40
193.0
 40
194.0
 40
194.0
 40
194.0
 40
195.0
 40
195.0
 40
195.0
 40
196.0
 40
196.0
 40
196.0
 40
197.0
 40
197.0
 40
197.0
 40
198.0
 40
198.0
 40
198.0
 40
199.0
 40
199.0
 40
199.0
 40
200.0
 40
200.0
 40
200.0
 40
201.0
 40
201.0
 40
201.0
 40
202.0
 40
202.0
 40
202.0
 40
203.0
 40
203.0
 40
203.0
 40
204.0
 40
204.0
 40
204.0
 40
205.0
 40
205.0
 40
205.0
 40
206.0
 40
206.0
 40
206.0
 40
207.0
 40
207.0
 40
207.0
 40
208.0
 40
208.0
 40
208.0
 40
209.0
 40
209.0
 40
209.0
 40
210.0
 40
210.0
 40
210.0
 40
211.0
 40
211.0
 40
211.0
 40
212.0
 40
212.0
 40
212.0
 40
213.0
 40
213.0
 40
213.0
 40
214.0
 40
214.0
 40
214.0
 40
215.0
 40
215.0
 40
215.0
 40
216.0
 40
216.0
 40
216.0
 40
217.0
 40
217.0
 40
217.0
 40
218.0
 40
218.0
 40
218.0
 40
219.0
 40
219.0
 40
219.0
 40
220.0
 40
220.0
 40
220.0
 40
221.0
 40
221.0
 40
221.0
 40
222.0
 40
222.0
 40
222.0
 40
223.0
 40
223.0
 40
223.0
 40
224.0
 40
224.0
 40
224.0
 40
225.0
 40
225.0
 40
225.0
 40
226.0
 40
226.0
 40
226.0
 40
227.0
 40
227.0
 40
227.0
 40
228.0
 40
228.0
 40
228.0
 40
229.0
 40
229.0
 40
229.0
 40
230.0
 40
230.0
 40
230.0
 40
231.0
 40
231.0
 40
231.0
 40
232.0
 40
232.0
 40
232.0
 40
233.0
 40
233.0
 40
233.0
 40
234.0
 40
234.0
 40
234.0
 40
235.0
 40
235.0
 40
235.0
 40
236.0
 40
236.0
 40
236.0
 40
237.0
 40
237.0
 40
237.0
 40
238.0
 40
238.0
 40
238.0
 40
239.0
 40
239.0
 40
239.0
 40
240.0
 40
240.0
 40
240.0
 40
241.0
 40
241.0
 40
241.0
 40
242.0
 40
242.0
 40
242.0
 40
243.0
 40
243.0
 40
243.0
 40
244.0
 40
244.0
 40
244.0
 40
245.0
 40
245.0
 40
245.0
 40
246.0
 40
246.0
 40
246.0
 40
246.0
 10
4.948535155012866
 20
-60.50931259337962
 30
0.0
 10
4.959042696242879
 20
-60.52757159945144
 30
0.0
 10
4.96955023747289
 20
-60.54548609597474
 30
0.0
 10
4.980230033477165
 20
-60.56408961159509
 30
0.0
 10
4.985742186253565
 20
-60.55616589197901
 30
0.0
 10
4.991598848578489
 20
-60.54135198139245
 30
0.0
 10
4.997283256129152
 20
-60.54135198139245
 30
0.0
 10
5.451691350633605
 20
-60.53411728087342
 30
0.0
 10
5.787588160445464
 20
-60.2967502019397
 30
0.0
 10
6.103331161668612
 20
-59.99806042336854
 30
0.0
 10
6.818705239180741
 20
-59.32213268916252
 30
0.0
 10
7.483608667833959
 20
-58.58729382215873
 30
0.0
 10
8.32903509991427
 20
-58.06157225110961
 30
0.0
 10
8.621006942289194
 20
-57.88104924768252
 30
0.0
 10
8.921074759054454
 20
-57.71051702116265
 30
0.0
 10
9.270751950807313
 20
-57.67020940398523
 30
0.0
 10
9.750998261451139
 20
-57.61439885712418
 30
0.0
 10
10.14236110857552
 20
-58.03952364000401
 30
0.0
 10
10.05330539028181
 20
-58.51322426922587
 30
0.0
 10
9.989054359481903
 20
-58.85118813632887
 30
0.0
 10
9.845221622972723
 20
-59.15401202948233
 30
0.0
 10
9.659014211994968
 20
-59.4402994643066
 30
0.0
 10
9.446624075329316
 20
-59.76551647811418
 30
0.0
 10
9.194098576260503
 20
-60.06282821849124
 30
0.0
 10
8.961899140554664
 20
-60.37702092674603
 30
0.0
 10
8.999450681343887
 20
-60.39252385642965
 30
0.0
 10
9.004962834120288
 20
-60.36668564029028
 30
0.0
 10
9.01891547083555
 20
-60.35393878699485
 30
0.0
 10
9.33827582231821
 20
-60.06489527578239
 30
0.0
 10
9.701388886463542
 20
-59.84337563608083
 30
0.0
 10
10.08103840893807
 20
-59.64183755019371
 30
0.0
 10
10.38317328299448
 20
-59.48129610058107
 30
0.0
 10
10.68100178769433
 20
-59.30973034541562
 30
0.0
 10
10.95264756670628
 20
-59.09716795397571
 30
0.0
 10
11.15849202194996
 20
-58.93524846616897
 30
0.0
 10
11.32781846504999
 20
-58.73956704260678
 30
0.0
 10
11.51971028357841
 20
-58.50977917374061
 30
0.0
 10
11.55037163339713
 20
-58.7564480104845
 30
0.0
 10
11.5789659259247
 20
-58.96280923005096
 30
0.0
 10
11.60118679180457
 20
-59.17123750690858
 30
0.0
 10
11.65406900750315
 20
-59.66836478543014
 30
0.0
 10
11.67525634473744
 20
-60.16928166898546
 30
0.0
 10
11.82701280086269
 20
-60.65193954646896
 30
0.0
 10
11.87300482559078
 20
-60.79628904730093
 30
0.0
 10
11.88557942411194
 20
-60.94718422955487
 30
0.0
 10
11.86904296578274
 20
-61.09945745000292
 30
0.0
 10
11.78033175703756
 20
-61.90905488903663
 30
0.0
 10
11.57190348017994
 20
-62.68557941141194
 30
0.0
 10
11.23066677236594
 20
-63.42627494074065
 30
0.0
 10
11.00001762962847
 20
-63.92546927655336
 30
0.0
 10
10.95040825464087
 20
-64.43947752295263
 30
0.0
 10
11.12783067213124
 20
-64.96657713219585
 30
0.0
 10
11.19569905319066
 20
-65.16604816079182
 30
0.0
 10
11.29939642729668
 20
-65.34174803053956
 30
0.0
 10
11.49783392724707
 20
-65.43889972322361
 30
0.0
 10
11.63736029439969
 20
-65.50711261383155
 30
0.0
 10
11.78618841936248
 20
-65.5326063204224
 30
0.0
 10
11.92089165283575
 20
-65.44096678051476
 30
0.0
 10
12.04784342146721
 20
-65.35346135518941
 30
0.0
 10
12.03079019881522
 20
-65.21221244029417
 30
0.0
 10
12.01545952390586
 20
-65.078887245015
 30
0.0
 10
12.01098089977503
 20
-65.04236923287135
 30
0.0
 10
12.00409070880453
 20
-65.0058512207277
 30
0.0
 10
11.99616698918846
 20
-64.96933320858406
 30
0.0
 10
11.9642998559499
 20
-64.82705076504324
 30
0.0
 10
11.97635769014827
 20
-64.68614635969652
 30
0.0
 10
12.02717284855571
 20
-64.54972057848063
 30
0.0
 10
12.23629014451037
 20
-63.97990178522031
 30
0.0
 10
12.41577961929189
 20
-63.40078123414981
 30
0.0
 10
12.66589355152103
 20
-62.84474282283048
 30
0.0
 10
12.89206407012768
 20
-62.34244790108106
 30
0.0
 10
13.07172579968346
 20
-61.82361652100244
 30
0.0
 10
13.0922241178207
 20
-61.26344399510081
 30
0.0
 10
13.09325764646627
 20
-61.23760577896144
 30
0.0
 10
13.09876979924267
 20
-61.20935599598238
 30
0.0
 10
13.11082763344104
 20
-61.18730738487679
 30
0.0
 10
13.28928357957698
 20
-60.86519095700593
 30
0.0
 10
13.32786864901178
 20
-60.5062120074429
 30
0.0
 10
13.37902831696774
 20
-60.15033364381659
 30
0.0
 10
13.41485731001434
 20
-59.90400931662122
 30
0.0
 10
13.45275336035209
 20
-59.65837400852291
 30
0.0
 10
13.55782877265221
 20
-59.43030868739937
 30
0.0
 10
13.69184298702843
 20
-59.13747557115313
 30
0.0
 10
13.91267360763294
 20
-58.96522079689064
 30
0.0
 10
14.24633110537939
 20
-58.96280923005096
 30
0.0
 10
14.46233859230455
 20
-58.96177570140539
 30
0.0
 10
14.56672498550762
 20
-59.04549152169697
 30
0.0
 10
14.61082220771882
 20
-59.25667587494278
 30
0.0
 10
14.63321532837295
 20
-59.36416285408257
 30
0.0
 10
14.63166503540458
 20
-59.48439668651779
 30
0.0
 10
14.67800156968119
 20
-59.57948132191069
 30
0.0
 10
14.79272324934001
 20
-59.8127142862621
 30
0.0
 10
14.83251410219465
 20
-60.05938312300599
 30
0.0
 10
14.86093613994796
 20
-60.31121960297775
 30
0.0
 10
14.88642984653881
 20
-60.53652884771309
 30
0.0
 10
14.88866915860422
 20
-60.78044160806878
 30
0.0
 10
15.0145873985901
 20
-60.9668212738208
 30
0.0
 10
15.16961669542635
 20
-61.19695365223549
 30
0.0
 10
15.16169297581027
 20
-61.44052190304265
 30
0.0
 10
15.17340630046012
 20
-61.68960230662621
 30
0.0
 10
15.18288031304456
 20
-61.88976235431923
 30
0.0
 10
15.19011501356358
 20
-62.08992240201224
 30
0.0
 10
15.19752196885687
 20
-62.29008244970526
 30
0.0
 10
15.21423068196033
 20
-62.72485349994379
 30
0.0
 10
15.23145615938658
 20
-63.15996905973084
 30
0.0
 10
15.24782036294152
 20
-63.59542912906642
 30
0.0
 10
15.32447373748833
 20
-63.40009221505276
 30
0.0
 10
15.37046576221641
 20
-63.20131020555385
 30
0.0
 10
15.4178358251386
 20
-63.00321721515198
 30
0.0
 10
15.54995523699793
 20
-62.44580076563855
 30
0.0
 10
15.65882025433182
 20
-61.8866617683825
 30
0.0
 10
15.54495984854432
 20
-61.31133082234578
 30
0.0
 10
15.53221299524889
 20
-61.24931910361128
 30
0.0
 10
15.55942924958237
 20
-61.21349011056468
 30
0.0
 10
15.5923299114665
 20
-61.17077092654759
 30
0.0
 10
15.77629801037884
 20
-60.92995875212863
 30
0.0
 10
15.88137342267896
 20
-60.65814071834241
 30
0.0
 10
15.91754692527409
 20
-60.35807290157715
 30
0.0
 10
15.95664875903167
 20
-60.03940156919154
 30
0.0
 10
15.90480007197866
 20
-59.72796493732496
 30
0.0
 10
15.85295138492565
 20
-59.41583928636132
 30
0.0
 10
15.73909097913814
 20
-58.72819822750545
 30
0.0
 10
15.89756537145964
 20
-58.10877005925753
 30
0.0
 10
16.32992485485849
 20
-57.55858831026313
 30
0.0
 10
16.39348686656135
 20
-57.47762856635976
 30
0.0
 10
16.42742105709106
 20
-57.46660426080696
 30
0.0
 10
16.50924207486575
 20
-57.54584145696771
 30
0.0
 10
16.87528347017354
 20
-57.90171982059402
 30
0.0
 10
17.25045436851725
 20
-58.24932995505573
 30
0.0
 10
17.62252468092423
 20
-58.60038518500269
 30
0.0
 10
17.83991020604349
 20
-58.8060573854721
 30
0.0
 10
18.05832925980834
 20
-59.01207409549004
 30
0.0
 10
18.27657605879891
 20
-59.21774629595946
 30
0.0
 10
18.15651448113795
 20
-58.96969942102147
 30
0.0
 10
18.01474880191993
 20
-58.73956704260678
 30
0.0
 10
17.88883056193404
 20
-58.50219996367306
 30
0.0
 10
17.67799071823675
 20
-58.10601398286934
 30
0.0
 10
17.51848279726969
 20
-57.6629747034662
 30
0.0
 10
17.17638481558438
 20
-57.36910805857439
 30
0.0
 10
16.89250894759979
 20
-57.12588431731575
 30
0.0
 10
16.85237358519663
 20
-56.86509058908234
 30
0.0
 10
16.90491129134669
 20
-56.54262965166296
 30
0.0
 10
16.91576334212523
 20
-56.47441676105501
 30
0.0
 10
16.91834716373916
 20
-56.40585936089854
 30
0.0
 10
16.92385931651556
 20
-56.33764647029059
 30
0.0
 10
16.97794731563399
 20
-55.64242620136717
 30
0.0
 10
17.30299207466731
 20
-55.12635089767675
 30
0.0
 10
17.94653591131198
 20
-54.83730738646429
 30
0.0
 10
18.43281113905499
 20
-54.61992186134502
 30
0.0
 10
18.90754529692242
 20
-54.37876517737753
 30
0.0
 10
19.38606905982362
 20
-54.1451877034776
 30
0.0
 10
19.46134439617633
 20
-54.1079806722369
 30
0.0
 10
19.53024630588133
 20
-54.0638834500257
 30
0.0
 10
19.59225802461583
 20
-54.00290525993677
 30
0.0
 10
19.72368841737811
 20
-53.87474770788548
 30
0.0
 10
19.85701361265728
 20
-53.74865721312534
 30
0.0
 10
19.99016655316218
 20
-53.62428926610782
 30
0.0
 10
20.00360242555466
 20
-53.63496906211209
 30
0.0
 10
20.01755506226992
 20
-53.64599336766489
 30
0.0
 10
20.03219671808223
 20
-53.65770669231474
 30
0.0
 10
20.03219671808223
 20
-53.65770669231474
 30
0.0
 10
20.07991129055294
 20
-53.69422470445839
 30
0.0
 10
20.07991129055294
 20
-53.69422470445839
 30
0.0
 10
20.07991129055294
 20
-53.69422470445839
 30
0.0
 10
20.13865016857645
 20
-53.71041665323906
 30
0.0
 10
20.13865016857645
 20
-53.71041665323906
 30
0.0
 10
20.15105251232335
 20
-53.71386174872431
 30
0.0
 10
20.16345485607025
 20
-53.71661782511251
 30
0.0
 10
20.17637396413993
 20
-53.72006292059776
 30
0.0
 10
20.17637396413993
 20
-53.72006292059776
 30
0.0
 10
20.17913004052814
 20
-53.72040743014629
 30
0.0
 10
20.17913004052814
 20
-53.72040743014629
 30
0.0
 10
20.57152641629809
 20
-53.90093043357338
 30
0.0
 10
20.95927191316296
 20
-53.90506454815568
 30
0.0
 10
21.33082546124716
 20
-53.73349879299024
 30
0.0
 10
21.45743272033009
 20
-53.67424315064394
 30
0.0
 10
21.58765732967253
 20
-53.60568575048747
 30
0.0
 10
21.75302191296452
 20
-53.51060111509457
 30
0.0
 10
21.81727294376443
 20
-53.4737385934024
 30
0.0
 10
21.88083495546729
 20
-53.43549803351613
 30
0.0
 10
21.94474147671868
 20
-53.39760198317838
 30
0.0
 10
22.06618109257373
 20
-53.32628850663371
 30
0.0
 10
22.18813747275158
 20
-53.25394150144346
 30
0.0
 10
22.31267767454336
 20
-53.18745115857814
 30
0.0
 10
22.33300373790633
 20
-53.17642685302534
 30
0.0
 10
22.35350205604357
 20
-53.16540254747254
 30
0.0
 10
22.37313910030949
 20
-53.15403373237122
 30
0.0
 10
22.8447726722402
 20
-52.88152667948795
 30
0.0
 10
23.10504963615082
 20
-52.46777071170945
 30
0.0
 10
23.13054334274167
 20
-51.95582952260132
 30
0.0
 10
23.42372096853643
 20
-52.45157876292878
 30
0.0
 10
23.97683104869329
 20
-52.70410426199759
 30
0.0
 10
24.53597004594934
 20
-52.58800454414467
 30
0.0
 10
24.85860323814299
 20
-52.52082518218229
 30
0.0
 10
25.182786723305
 20
-52.44537759105533
 30
0.0
 10
25.49577364813995
 20
-52.37165254767098
 30
0.0
 10
25.49577364813995
 20
-52.37165254767098
 30
0.0
 10
25.74450954217498
 20
-52.31343043397025
 30
0.0
 10
25.74450954217498
 20
-52.31343043397025
 30
0.0
 10
25.87335611332333
 20
-52.28380261279711
 30
0.0
 10
25.99462347440412
 20
-52.23626029510066
 30
0.0
 10
26.10486652993212
 20
-52.17287053817206
 30
0.0
 10
26.16687824866662
 20
-52.13704154512546
 30
0.0
 10
26.22613389101291
 20
-52.09535588975394
 30
0.0
 10
26.28194443787396
 20
-52.04953611980012
 30
0.0
 10
26.64850259750454
 20
-51.74636771709813
 30
0.0
 10
26.73738606102399
 20
-51.3350233161593
 30
0.0
 10
26.77252603497354
 20
-51.05149195772324
 30
0.0
 10
26.77252603497354
 20
-51.05149195772324
 30
0.0
 10
26.77528211136174
 20
-51.02427570338977
 30
0.0
 10
26.77528211136174
 20
-51.02427570338977
 30
0.0
 10
26.77528211136174
 20
-51.02427570338977
 30
0.0
 10
26.77459309226469
 20
-50.99602592041072
 30
0.0
 10
26.77459309226469
 20
-50.99602592041072
 30
0.0
 10
26.77114799677944
 20
-50.93987086400114
 30
0.0
 10
26.76563584400304
 20
-50.88509384578568
 30
0.0
 10
26.75530055754729
 20
-50.83238388486135
 30
0.0
 10
26.77390407316764
 20
-50.81998154111445
 30
0.0
 10
26.79044053149683
 20
-50.80757919736755
 30
0.0
 10
26.80835502802013
 20
-50.79483234407213
 30
0.0
 10
26.83040363912573
 20
-50.81343585969248
 30
0.0
 10
26.85245225023133
 20
-50.8316948657643
 30
0.0
 10
26.87587889953103
 20
-50.84995387183613
 30
0.0
 10
26.87587889953103
 20
-50.84995387183613
 30
0.0
 10
26.90412868251008
 20
-50.86959091610205
 30
0.0
 10
26.90412868251008
 20
-50.86959091610205
 30
0.0
 10
26.90412868251008
 20
-50.86959091610205
 30
0.0
 10
26.96200628666228
 20
-50.89577364178995
 30
0.0
 10
26.96200628666228
 20
-50.89577364178995
 30
0.0
 10
26.97923176408853
 20
-50.90266383276045
 30
0.0
 10
26.99714626061182
 20
-50.90989853327947
 30
0.0
 10
27.01368271894102
 20
-50.91782225289555
 30
0.0
 10
27.440874559112
 20
-51.12142739607381
 30
0.0
 10
27.88666991490333
 20
-51.11143661916659
 30
0.0
 10
28.26838649466902
 20
-50.8909505081106
 30
0.0
 10
28.36898328283831
 20
-50.83341741350693
 30
0.0
 10
28.4640679182312
 20
-50.76107040831668
 30
0.0
 10
28.55295138175065
 20
-50.67563204028248
 30
0.0
 10
28.86576605181134
 20
-50.37418618532313
 30
0.0
 10
29.11656900313752
 20
-50.12579480083661
 30
0.0
 10
29.34601236245517
 20
-49.89290634603372
 30
0.0
 10
29.7959418328288
 20
-49.43470864649549
 30
0.0
 10
29.90411783106564
 20
-48.91501599254556
 30
0.0
 10
29.6664062425834
 20
-48.35036484251311
 30
0.0
 10
30.08395181539568
 20
-48.50659992276918
 30
0.0
 10
30.48978406355811
 20
-48.48799640714883
 30
0.0
 10
30.82602538291849
 20
-48.29352076700648
 30
0.0
 10
30.94040255302879
 20
-48.22771944323821
 30
0.0
 10
31.04444443668334
 20
-48.14400362294664
 30
0.0
 10
31.13884005297918
 20
-48.04202879658325
 30
0.0
 10
31.39171006159652
 20
-47.76693792208604
 30
0.0
 10
31.68661023513391
 20
-47.44654404195781
 30
0.0
 10
31.96910806492439
 20
-47.11891546131055
 30
0.0
 10
32.28398979227622
 20
-46.75390759464833
 30
0.0
 10
32.37494031308682
 20
-46.321892620798
 30
0.0
 10
32.23231335999748
 20
-45.87006834790748
 30
0.0
 10
32.22955728360928
 20
-45.85663247551501
 30
0.0
 10
32.22542316902698
 20
-45.84440238654237
 30
0.0
 10
32.22197807354173
 20
-45.83251680711826
 30
0.0
 10
32.22749022631813
 20
-45.8295884759558
 30
0.0
 10
32.23300237909453
 20
-45.82838269253596
 30
0.0
 10
32.23782551277388
 20
-45.82597112569628
 30
0.0
 10
32.25918510478242
 20
-45.85387639912681
 30
0.0
 10
32.28192273498507
 20
-45.88160941778307
 30
0.0
 10
32.30810546067298
 20
-45.90882567211654
 30
0.0
 10
32.63470051267466
 20
-46.29726018807847
 30
0.0
 10
33.07773979207779
 20
-46.44471027484716
 30
0.0
 10
33.62482095513546
 20
-46.34773083693737
 30
0.0
 10
33.78329534745696
 20
-46.31965330873259
 30
0.0
 10
33.9424587588755
 20
-46.29295381872191
 30
0.0
 10
34.10024413209994
 20
-46.26642658348548
 30
0.0
 10
34.29730359385623
 20
-46.23421494069839
 30
0.0
 10
34.50056422748597
 20
-46.19976398584589
 30
0.0
 10
34.70175780382456
 20
-46.16307371892798
 30
0.0
 10
34.87332355899
 20
-46.1308620761409
 30
0.0
 10
35.02835285582625
 20
-46.0757405483769
 30
0.0
 10
35.16477863704214
 20
-45.99684786176468
 30
0.0
 10
35.45416665780313
 20
-45.82976073073007
 30
0.0
 10
35.65742729143287
 20
-45.56242132107467
 30
0.0
 10
35.76767034696086
 20
-45.20275335241459
 30
0.0
 10
35.78834091987236
 20
-45.13247340451549
 30
0.0
 10
35.79385307264876
 20
-45.0677056093928
 30
0.0
 10
35.79798718723106
 20
-45.01964652737356
 30
0.0
 10
35.79798718723106
 20
-45.00655516452962
 30
0.0
 10
35.80005424452221
 20
-44.98881292278057
 30
0.0
 10
35.80212130181336
 20
-44.97727185290499
 30
0.0
 10
35.80212130181336
 20
-44.97727185290499
 30
0.0
 10
35.77938367161071
 20
-44.7526516272667
 30
0.0
 10
35.77938367161071
 20
-44.7526516272667
 30
0.0
 10
35.77938367161071
 20
-44.7526516272667
 30
0.0
 10
35.82279187472486
 20
-44.6975300995027
 30
0.0
 10
35.82279187472486
 20
-44.6975300995027
 30
0.0
 10
35.8537977340921
 20
-44.68495550098154
 30
0.0
 10
35.88480359345936
 20
-44.67238090246038
 30
0.0
 10
35.91718749102071
 20
-44.65860052051938
 30
0.0
 10
35.94543727399975
 20
-44.69425725879172
 30
0.0
 10
35.9778211715611
 20
-44.72888046841847
 30
0.0
 10
36.01433918370475
 20
-44.76264240417392
 30
0.0
 10
36.45048827213738
 20
-45.17502033375833
 30
0.0
 10
37.0740505549676
 20
-45.24426675301185
 30
0.0
 10
37.60252820240493
 20
-44.93920354779298
 30
0.0
 10
37.60252820240493
 20
-44.93920354779298
 30
0.0
 10
37.61768662254003
 20
-44.93041855430559
 30
0.0
 10
37.61768662254003
 20
-44.93041855430559
 30
0.0
 10
37.83197156172256
 20
-44.80346678567413
 30
0.0
 10
38.0379882717405
 20
-44.66152885168184
 30
0.0
 10
38.2364257716909
 20
-44.52475856091743
 30
0.0
 10
38.2887912230667
 20
-44.48789603922525
 30
0.0
 10
38.34253471263659
 20
-44.45120577230734
 30
0.0
 10
38.39627820220649
 20
-44.41434325061517
 30
0.0
 10
38.39627820220649
 20
-44.41434325061517
 30
0.0
 10
38.45622286364983
 20
-44.37420788821201
 30
0.0
 10
38.45622286364983
 20
-44.37420788821201
 30
0.0
 10
38.72218423511112
 20
-44.19385713955918
 30
0.0
 10
39.05360242079216
 20
-43.97061495211499
 30
0.0
 10
39.17349174367885
 20
-43.53825546871613
 30
0.0
 10
39.1907172211051
 20
-43.47452120223901
 30
0.0
 10
39.2072536794343
 20
-43.41130370008467
 30
0.0
 10
39.22310111866645
 20
-43.34722492405903
 30
0.0
 10
39.22310111866645
 20
-43.34722492405903
 30
0.0
 10
39.2651312835865
 20
-43.18943955083459
 30
0.0
 10
39.2651312835865
 20
-43.18943955083459
 30
0.0
 10
39.2651312835865
 20
-43.18943955083459
 30
0.0
 10
39.23688150060745
 20
-43.05887043194362
 30
0.0
 10
39.23688150060745
 20
-43.05887043194362
 30
0.0
 10
39.2348144433163
 20
-43.0414726997431
 30
0.0
 10
39.23136934783105
 20
-43.02338594844554
 30
0.0
 10
39.2279242523458
 20
-43.00564370669651
 30
0.0
 10
39.49870875748643
 20
-42.83562824449942
 30
0.0
 10
39.76535914804477
 20
-42.65837808178333
 30
0.0
 10
40.04096678686476
 20
-42.49594182965379
 30
0.0
 10
40.40683592739829
 20
-42.28079561659994
 30
0.0
 10
40.56048718604043
 20
-42.25581867433188
 30
0.0
 10
40.85332030228667
 20
-42.52867023676367
 30
0.0
 10
41.12686088381551
 20
-42.78584661473757
 30
0.0
 10
41.45965710769065
 20
-42.94569904525316
 30
0.0
 10
41.81381292357432
 20
-43.06128199878329
 30
0.0
 10
42.2837239477624
 20
-43.21424423832838
 30
0.0
 10
42.77154946847378
 20
-43.27349988067468
 30
0.0
 10
43.25730793189401
 20
-43.35067001954428
 30
0.0
 10
43.84228514528943
 20
-43.44420436196881
 30
0.0
 10
44.4210611868114
 20
-43.56564397782387
 30
0.0
 10
44.94127060508413
 20
-43.87036267349421
 30
0.0
 10
44.97227646445138
 20
-43.88810491524325
 30
0.0
 10
44.99914820923632
 20
-43.93685301635954
 30
0.0
 10
45.05082464151507
 20
-43.91032578112311
 30
0.0
 10
44.77452798359803
 20
-43.41457654079566
 30
0.0
 10
44.36042750627101
 20
-43.09607746318432
 30
0.0
 10
43.83057182063958
 20
-42.91365965724034
 30
0.0
 10
43.381331369363
 20
-42.75776908653278
 30
0.0
 10
42.90935328788377
 20
-42.68404404314843
 30
0.0
 10
42.4518446074426
 20
-42.55554198154861
 30
0.0
 10
42.07839625684151
 20
-42.45012205969997
 30
0.0
 10
41.72492946005488
 20
-42.30646157796505
 30
0.0
 10
41.41900498096469
 20
-42.05703666483296
 30
0.0
 10
41.33701170841575
 20
-41.99002955764485
 30
0.0
 10
41.3445909184833
 20
-41.96040173647171
 30
0.0
 10
41.43485242019685
 20
-41.92112764793986
 30
0.0
 10
41.54578449482189
 20
-41.87220729204931
 30
0.0
 10
41.65396049305873
 20
-41.81467419744564
 30
0.0
 10
41.76282551039263
 20
-41.76144747219853
 30
0.0
 10
42.04325628289197
 20
-41.6251939457569
 30
0.0
 10
42.3236870553913
 20
-41.4901462027351
 30
0.0
 10
42.63030055357854
 20
-41.34200709686936
 30
0.0
 10
42.54072807096204
 20
-41.30790065156539
 30
0.0
 10
42.48285046680984
 20
-41.28516302136274
 30
0.0
 10
42.42497286265765
 20
-41.26242539116009
 30
0.0
 10
42.16865775855506
 20
-41.16337889595916
 30
0.0
 10
41.90751952077312
 20
-41.07656248973086
 30
0.0
 10
41.67256400867908
 20
-40.930318186382
 30
0.0
 10
41.43071830561455
 20
-40.78045653277364
 30
0.0
 10
41.381797949724
 20
-40.62783880277707
 30
0.0
 10
41.49479708164019
 20
-40.36859536751202
 30
0.0
 10
41.54302841843369
 20
-40.25869682153255
 30
0.0
 10
41.60641817536229
 20
-40.15413817355522
 30
0.0
 10
41.66911891319383
 20
-40.05026854467494
 30
0.0
 10
41.94197047562562
 20
-39.60516220798065
 30
0.0
 10
42.31748588351785
 20
-39.23240287647663
 30
0.0
 10
42.58069117859094
 20
-38.78161213223168
 30
0.0
 10
42.57035589213519
 20
-38.76335312615986
 30
0.0
 10
42.55933158658239
 20
-38.74492186531377
 30
0.0
 10
42.54899630012664
 20
-38.72666285924195
 30
0.0
 10
41.97848848776927
 20
-39.106656891265
 30
0.0
 10
41.4079806754119
 20
-39.48665092328806
 30
0.0
 10
40.83471678666632
 20
-39.86526691711702
 30
0.0
 10
40.80026583181382
 20
-39.88938258551376
 30
0.0
 10
40.76236978147607
 20
-39.94588215147186
 30
0.0
 10
40.71551648287668
 20
-39.91590982075019
 30
0.0
 10
40.67348631795663
 20
-39.88938258551376
 30
0.0
 10
40.69071179538288
 20
-39.82823214065058
 30
0.0
 10
40.69277885267403
 20
-39.7822401159225
 30
0.0
 10
40.70311413912978
 20
-39.55624185209011
 30
0.0
 10
40.72240667384717
 20
-39.32972682393493
 30
0.0
 10
40.72929686481768
 20
-39.1039008148768
 30
0.0
 10
40.73756509398228
 20
-38.88031411788409
 30
0.0
 10
40.66246201240383
 20
-38.68359916567633
 30
0.0
 10
40.50949977285874
 20
-38.50428194566907
 30
0.0
 10
40.26558701250305
 20
-38.9252726139666
 30
0.0
 10
40.12916123128716
 20
-39.36762287427268
 30
0.0
 10
40.07679577991136
 20
-39.83253851000715
 30
0.0
 10
40.03545463408836
 20
-40.19444579073264
 30
0.0
 10
39.89902885287247
 20
-40.51277261356972
 30
0.0
 10
39.70610350569848
 20
-40.81404621375482
 30
0.0
 10
39.41395940854929
 20
-41.26673176051665
 30
0.0
 10
39.06324868815086
 20
-41.66877440364531
 30
0.0
 10
38.68842229935567
 20
-42.05066323818525
 30
0.0
 10
38.68842229935567
 20
-42.05066323818525
 30
0.0
 10
38.69255641393797
 20
-42.06427136535199
 30
0.0
 10
38.69255641393797
 20
-42.06427136535199
 30
0.0
 10
38.69255641393797
 20
-42.06427136535199
 30
0.0
 10
38.55750867091618
 20
-41.97590466615533
 30
0.0
 10
38.55750867091618
 20
-41.97590466615533
 30
0.0
 10
38.54303926987813
 20
-41.97194280634729
 30
0.0
 10
38.52925888793713
 20
-41.96677516311942
 30
0.0
 10
38.51410046780203
 20
-41.96350232240843
 30
0.0
 10
38.50652125773448
 20
-41.96005722692318
 30
0.0
 10
38.49618597127873
 20
-41.95781791485777
 30
0.0
 10
38.48791774211413
 20
-41.95540634801809
 30
0.0
 10
38.07037216930186
 20
-41.76196423652132
 30
0.0
 10
37.64731444371317
 20
-41.77729491143068
 30
0.0
 10
37.26490884485044
 20
-41.9981255320352
 30
0.0
 10
37.24561631013304
 20
-42.00897758281373
 30
0.0
 10
37.22770181360974
 20
-42.019657378818
 30
0.0
 10
37.20772025979529
 20
-42.03154295824211
 30
0.0
 10
37.0754285931617
 20
-42.11594779763074
 30
0.0
 10
36.94451496472221
 20
-42.20465900637592
 30
0.0
 10
36.81842446996206
 20
-42.29009737441012
 30
0.0
 10
36.67166340229042
 20
-42.38914386961105
 30
0.0
 10
36.51939018184238
 20
-42.49215222462002
 30
0.0
 10
36.36918401868548
 20
-42.58482529317324
 30
0.0
 10
35.70565862822637
 20
-42.99616969411207
 30
0.0
 10
35.50033093730548
 20
-43.46900904946261
 30
0.0
 10
35.66293944420926
 20
-44.21866182705298
 30
0.0
 10
35.66293944420926
 20
-44.21866182705298
 30
0.0
 10
35.67189669247092
 20
-44.25707464171351
 30
0.0
 10
35.67189669247092
 20
-44.25707464171351
 30
0.0
 10
35.67189669247092
 20
-44.25707464171351
 30
0.0
 10
35.66293944420926
 20
-44.2438110240953
 30
0.0
 10
35.66293944420926
 20
-44.2438110240953
 30
0.0
 10
35.30327147554918
 20
-43.66555174689611
 30
0.0
 10
34.8209581076142
 20
-43.45350611977899
 30
0.0
 10
34.14503037340819
 20
-43.57718504769946
 30
0.0
 10
33.85081921896785
 20
-43.63041177294657
 30
0.0
 10
33.59519313396231
 20
-43.67347546651219
 30
0.0
 10
33.36092664096532
 20
-43.70861544046173
 30
0.0
 10
33.13492837713294
 20
-43.7418606118944
 30
0.0
 10
32.87447915844805
 20
-43.78905842004232
 30
0.0
 10
32.63745658906286
 20
-43.926000965581
 30
0.0
 10
32.57888996581361
 20
-43.95959064656219
 30
0.0
 10
32.52514647624371
 20
-43.99696993257715
 30
0.0
 10
32.47484808215907
 20
-44.03917235227146
 30
0.0
 10
32.16892360306888
 20
-44.28704697243518
 30
0.0
 10
32.00355901977689
 20
-44.6355183807682
 30
0.0
 10
31.98219942776834
 20
-45.07442354558903
 30
0.0
 10
31.98219942776834
 20
-45.07442354558903
 30
0.0
 10
31.98151040867129
 20
-45.10870224566727
 30
0.0
 10
31.98151040867129
 20
-45.10870224566727
 30
0.0
 10
31.98151040867129
 20
-45.10870224566727
 30
0.0
 10
31.98702256144769
 20
-45.14298094574551
 30
0.0
 10
31.98702256144769
 20
-45.14298094574551
 30
0.0
 10
31.99460177151524
 20
-45.18690591318244
 30
0.0
 10
32.00287000067984
 20
-45.23565401429872
 30
0.0
 10
32.01458332532969
 20
-45.28698593702895
 30
0.0
 10
31.98977863783589
 20
-45.30386690490668
 30
0.0
 10
31.96428493124504
 20
-45.3221259109785
 30
0.0
 10
31.93948024375124
 20
-45.33831785975917
 30
0.0
 10
31.93948024375124
 20
-45.33831785975917
 30
0.0
 10
31.90571830799579
 20
-45.28543564406058
 30
0.0
 10
31.90571830799579
 20
-45.28543564406058
 30
0.0
 10
31.90571830799579
 20
-45.28543564406058
 30
0.0
 10
31.8381944364849
 20
-45.24564479120595
 30
0.0
 10
31.8381944364849
 20
-45.24564479120595
 30
0.0
 10
31.8285481691262
 20
-45.23961587410677
 30
0.0
 10
31.81821288267045
 20
-45.23410372133036
 30
0.0
 10
31.80718857711765
 20
-45.22876382332823
 30
0.0
 10
31.80443250072945
 20
-45.22618000171429
 30
0.0
 10
31.8009874052442
 20
-45.22514647306872
 30
0.0
 10
31.79754230975895
 20
-45.22307941577757
 30
0.0
 10
31.34141166751187
 20
-44.88253172706062
 30
0.0
 10
30.78950737077485
 20
-44.84153509078615
 30
0.0
 10
30.32097438478087
 20
-45.11197508637826
 30
0.0
 10
30.18799369905022
 20
-45.18862846092507
 30
0.0
 10
30.06603731887238
 20
-45.28888073954584
 30
0.0
 10
29.95648328244144
 20
-45.40980359107811
 30
0.0
 10
29.86208766614559
 20
-45.51660155112085
 30
0.0
 10
29.7656249925586
 20
-45.62288274684081
 30
0.0
 10
29.6691623189716
 20
-45.7289916877865
 30
0.0
 10
29.51068792665011
 20
-45.90486381230851
 30
0.0
 10
29.34601236245517
 20
-46.08659259915544
 30
0.0
 10
29.18547091284252
 20
-46.2695271694222
 30
0.0
 10
28.83613823063819
 20
-46.66605765977446
 30
0.0
 10
28.75896809176859
 20
-47.19556883585736
 30
0.0
 10
28.97049695456293
 20
-47.6752983821784
 30
0.0
 10
28.96153970630128
 20
-47.67271456056447
 30
0.0
 10
28.95189343894258
 20
-47.67064750327332
 30
0.0
 10
28.94224717158388
 20
-47.6684081912079
 30
0.0
 10
28.91813150318713
 20
-47.66306829320576
 30
0.0
 10
28.89470485388744
 20
-47.65755614042936
 30
0.0
 10
28.87058918549069
 20
-47.65083820423312
 30
0.0
 10
28.49920789218076
 20
-47.5361165245743
 30
0.0
 10
28.15332030546167
 20
-47.56832816736139
 30
0.0
 10
27.84257269269214
 20
-47.74764538736865
 30
0.0
 10
27.78469508853994
 20
-47.78123506834983
 30
0.0
 10
27.72681748438774
 20
-47.82016464733316
 30
0.0
 10
27.67238497572079
 20
-47.86408961477009
 30
0.0
 10
27.4987521632642
 20
-48.0027547080514
 30
0.0
 10
27.34716796191321
 20
-48.15606145714501
 30
0.0
 10
27.19971787514451
 20
-48.30454507255929
 30
0.0
 10
27.09016383871357
 20
-48.4165106758299
 30
0.0
 10
26.98405489776788
 20
-48.52279187154986
 30
0.0
 10
26.87243380404578
 20
-48.6204603285567
 30
0.0
 10
26.4535101930394
 20
-48.98650172386449
 30
0.0
 10
26.26334092225361
 20
-49.40404729667677
 30
0.0
 10
26.29227972432971
 20
-49.8953179128734
 30
0.0
 10
26.29227972432971
 20
-49.8953179128734
 30
0.0
 10
26.29710285800906
 20
-49.93493651095377
 30
0.0
 10
26.29710285800906
 20
-49.93493651095377
 30
0.0
 10
26.30192599168841
 20
-49.95836316025347
 30
0.0
 10
26.30743814446481
 20
-49.98041177135907
 30
0.0
 10
26.31363931633826
 20
-50.00314940156171
 30
0.0
 10
26.31363931633826
 20
-50.00314940156171
 30
0.0
 10
26.27987738058281
 20
-49.96387531302987
 30
0.0
 10
26.27987738058281
 20
-49.96387531302987
 30
0.0
 10
26.27987738058281
 20
-49.96387531302987
 30
0.0
 10
26.20753037539256
 20
-49.93528102050229
 30
0.0
 10
26.20753037539256
 20
-49.93528102050229
 30
0.0
 10
26.19099391706336
 20
-49.92804631998327
 30
0.0
 10
26.17307942054007
 20
-49.92218965765834
 30
0.0
 10
26.15585394311382
 20
-49.91598848578489
 30
0.0
 10
26.14896375214332
 20
-49.91357691894522
 30
0.0
 10
26.14276258026987
 20
-49.91116535210554
 30
0.0
 10
26.13587238929937
 20
-49.90875378526587
 30
0.0
 10
25.82719183382098
 20
-49.71548392854336
 30
0.0
 10
25.4771701325196
 20
-49.66311847716756
 30
0.0
 10
25.09528129797965
 20
-49.75303546933257
 30
0.0
 10
25.00226371987791
 20
-49.7740505517926
 30
0.0
 10
24.90976290609895
 20
-49.79437661515558
 30
0.0
 10
24.81691758277147
 20
-49.81573620716412
 30
0.0
 10
24.64466280850898
 20
-49.85432127659892
 30
0.0
 10
24.46517333372746
 20
-49.89497340332487
 30
0.0
 10
24.28843993533414
 20
-49.93907062553607
 30
0.0
 10
24.24537624176852
 20
-49.94975042154034
 30
0.0
 10
24.2009345100088
 20
-49.95939668889904
 30
0.0
 10
24.15700954257186
 20
-49.96904295625774
 30
0.0
 10
24.03884276742779
 20
-49.99453666284859
 30
0.0
 10
23.90448404350305
 20
-50.02313095537616
 30
0.0
 10
23.76943630048125
 20
-50.07963052133426
 30
0.0
 10
23.71982692549366
 20
-50.10064560379428
 30
0.0
 10
23.67107882437737
 20
-50.12476127219104
 30
0.0
 10
23.62439778055224
 20
-50.1519775265245
 30
0.0
 10
23.30607095771515
 20
-50.3352566063398
 30
0.0
 10
23.13019883319314
 20
-50.62154404116406
 30
0.0
 10
23.02512342089302
 20
-50.82101506976003
 30
0.0
 10
23.02512342089302
 20
-50.82101506976003
 30
0.0
 10
23.00324706456169
 20
-50.86166719648597
 30
0.0
 10
23.00324706456169
 20
-50.86166719648597
 30
0.0
 10
23.00324706456169
 20
-50.86166719648597
 30
0.0
 10
22.9944620710743
 20
-50.90817598553685
 30
0.0
 10
22.9944620710743
 20
-50.90817598553685
 30
0.0
 10
22.98791638965233
 20
-50.94021537354967
 30
0.0
 10
22.9820597273274
 20
-50.97397730930512
 30
0.0
 10
22.976547574551
 20
-51.00877277370614
 30
0.0
 10
22.91040174123421
 20
-51.01876355061336
 30
0.0
 10
22.84408365314315
 20
-51.03116589436026
 30
0.0
 10
22.77828232937487
 20
-51.04391274765569
 30
0.0
 10
22.71850992270579
 20
-50.98293455756677
 30
0.0
 10
22.65201957984047
 20
-50.92746852025424
 30
0.0
 10
22.57760551735907
 20
-50.8785481643637
 30
0.0
 10
22.13232692589053
 20
-50.55918781288104
 30
0.0
 10
21.63399386394914
 20
-50.53334959674167
 30
0.0
 10
21.13514403768497
 20
-50.80310057323673
 30
0.0
 10
21.04247096913175
 20
-50.85305445777285
 30
0.0
 10
20.94463025735065
 20
-50.90783147598832
 30
0.0
 10
20.82629122743232
 20
-50.9763888761448
 30
0.0
 10
20.74894883378846
 20
-51.02083060790451
 30
0.0
 10
20.67229545924165
 20
-51.06596135876129
 30
0.0
 10
20.59495306559779
 20
-51.11143661916659
 30
0.0
 10
20.46800129696634
 20
-51.18585068164798
 30
0.0
 10
20.34053276401209
 20
-51.26026474412938
 30
0.0
 10
20.21168619286374
 20
-51.33261174931963
 30
0.0
 10
20.21168619286374
 20
-51.33261174931963
 30
0.0
 10
20.19049885562946
 20
-51.34501409306652
 30
0.0
 10
20.19049885562946
 20
-51.34501409306652
 30
0.0
 10
19.68458658362052
 20
-51.63681368066719
 30
0.0
 10
19.42844373429219
 20
-52.08226452691
 30
0.0
 10
19.45032009062353
 20
-52.63313529500144
 30
0.0
 10
19.45032009062353
 20
-52.63313529500144
 30
0.0
 10
19.45221489314042
 20
-52.65759547294672
 30
0.0
 10
19.45221489314042
 20
-52.65759547294672
 30
0.0
 10
19.45548773385141
 20
-52.68515623682871
 30
0.0
 10
19.45979410320797
 20
-52.71306151025924
 30
0.0
 10
19.46461723688732
 20
-52.74062227414124
 30
0.0
 10
19.12148572655644
 20
-52.88256020813353
 30
0.0
 10
18.78231607603359
 20
-53.03414440948452
 30
0.0
 10
18.42247585259924
 20
-53.13198512126561
 30
0.0
 10
18.04007025373651
 20
-53.23568249537163
 30
0.0
 10
17.65232475687164
 20
-53.25256346324936
 30
0.0
 10
17.26406249568398
 20
-53.17229273844304
 30
0.0
 10
16.91869167328769
 20
-53.10132377144689
 30
0.0
 10
16.78450520413721
 20
-52.92321233485948
 30
0.0
 10
16.8162000826015
 20
-52.57939180543154
 30
0.0
 10
16.82670762383152
 20
-52.475349921777
 30
0.0
 10
16.85013427313122
 20
-52.3706190190254
 30
0.0
 10
16.87424994152797
 20
-52.26898870221054
 30
0.0
 10
16.9085286416062
 20
-52.12463920137856
 30
0.0
 10
16.95228135426888
 20
-51.98304577693479
 30
0.0
 10
16.9870768186699
 20
-51.84007431429693
 30
0.0
 10
17.00929768454976
 20
-51.74464516935551
 30
0.0
 10
17.01136474184091
 20
-51.64094779524949
 30
0.0
 10
16.94728596581526
 20
-51.56618922321957
 30
0.0
 10
16.80121391724067
 20
-51.3984130730879
 30
0.0
 10
16.77864854181228
 20
-51.19687498720079
 30
0.0
 10
16.77055256742194
 20
-50.99016925808579
 30
0.0
 10
16.76435139554849
 20
-50.82652722253643
 30
0.0
 10
16.75487738296406
 20
-50.66288518698706
 30
0.0
 10
16.69906683610301
 20
-50.50751138060229
 30
0.0
 10
16.61793483742538
 20
-50.2815131167699
 30
0.0
 10
16.49649522157032
 20
-50.08962129824148
 30
0.0
 10
16.23759629585379
 20
-50.03174369408929
 30
0.0
 10
15.95079209670675
 20
-49.96800942761217
 30
0.0
 10
15.79197319483673
 20
-50.07859699268869
 30
0.0
 10
15.82160101600988
 20
-50.36764050390115
 30
0.0
 10
15.86311441660714
 20
-50.76623805154455
 30
0.0
 10
15.71325276299877
 20
-51.11350367645774
 30
0.0
 10
15.58388942752764
 20
-51.46834851143847
 30
0.0
 10
15.52187770879314
 20
-51.63853622840981
 30
0.0
 10
15.47330186245112
 20
-51.64749347667146
 30
0.0
 10
15.33498127871834
 20
-51.5251925869451
 30
0.0
 10
15.12293565160121
 20
-51.3391574307416
 30
0.0
 10
14.89487033047767
 20
-51.17792696203191
 30
0.0
 10
14.62477484443408
 20
-51.09386663219181
 30
0.0
 10
14.51315375071199
 20
-51.05941567733932
 30
0.0
 10
14.49592827328574
 20
-51.00188258273564
 30
0.0
 10
14.49489474464017
 20
-50.9033528518575
 30
0.0
 10
14.48748778934688
 20
-50.20744356383703
 30
0.0
 10
14.47870279585949
 20
-49.51187878536509
 30
0.0
 10
14.46492241391849
 20
-48.81614175211888
 30
0.0
 10
14.46268310185308
 20
-48.7081380086563
 30
0.0
 10
14.48128661747343
 20
-48.62011581900817
 30
0.0
 10
14.56930880712156
 20
-48.55241969272301
 30
0.0
 10
14.67335069077611
 20
-48.47249347746521
 30
0.0
 10
14.67266167167906
 20
-48.38981118581922
 30
0.0
 10
14.59411349461536
 20
-48.28249646145368
 30
0.0
 10
14.12471923475007
 20
-47.63895262480901
 30
0.0
 10
13.6611816372097
 20
-46.99093016403352
 30
0.0
 10
13.19437119895835
 20
-46.34549152487196
 30
0.0
 10
13.0619072775505
 20
-46.16204019028241
 30
0.0
 10
12.92789306317428
 20
-45.98031140343548
 30
0.0
 10
12.76666259446458
 20
-45.76016980192801
 30
0.0
 10
12.81558295035513
 20
-46.04249537694424
 30
0.0
 10
12.88121201934914
 20
-46.26883815032515
 30
0.0
 10
12.97164577583695
 20
-46.48760171363852
 30
0.0
 10
13.11151665253809
 20
-46.8238430329989
 30
0.0
 10
13.26034477750089
 20
-47.15612249255125
 30
0.0
 10
13.40159369239613
 20
-47.49133028326606
 30
0.0
 10
13.42984347537518
 20
-47.55764837135712
 30
0.0
 10
13.46670599706735
 20
-47.64119193687443
 30
0.0
 10
13.41554632911139
 20
-47.70079208876925
 30
0.0
 10
13.36231960386428
 20
-47.76297606227801
 30
0.0
 10
13.28635524841452
 20
-47.70578747722286
 30
0.0
 10
13.22348225580871
 20
-47.68873425457087
 30
0.0
 10
12.73737928283996
 20
-47.56057670251958
 30
0.0
 10
12.27900932852747
 20
-47.35438773772738
 30
0.0
 10
11.80772026614529
 20
-47.18506129462735
 30
0.0
 10
11.77275254697001
 20
-47.17214218655766
 30
0.0
 10
11.73795708256898
 20
-47.13803574125369
 30
0.0
 10
11.69713270106877
 20
-47.16490748603864
 30
0.0
 10
11.89935980605294
 20
-47.48116725158457
 30
0.0
 10
12.16514892273996
 20
-47.73696559136437
 30
0.0
 10
12.45195312188701
 20
-47.96933728184447
 30
0.0
 10
13.00092908746157
 20
-48.41461587331302
 30
0.0
 10
13.46412217545342
 20
-48.9239732408072
 30
0.0
 10
13.73680148311094
 20
-49.58663735739501
 30
0.0
 10
13.87805039800618
 20
-49.92976886772589
 30
0.0
 10
13.96486680423448
 20
-50.2773790021876
 30
0.0
 10
13.85858560851452
 20
-50.64841578594901
 30
0.0
 10
13.803119571202
 20
-50.84340819041415
 30
0.0
 10
13.679096133733
 20
-50.94848360271427
 30
0.0
 10
13.48203667197671
 20
-50.98431259576087
 30
0.0
 10
13.24501410259152
 20
-51.02668727022944
 30
0.0
 10
13.00557996636666
 20
-50.9639865323979
 30
0.0
 10
12.77320827588656
 20
-50.99085827718284
 30
0.0
 10
12.45849880330899
 20
-51.02737628932649
 30
0.0
 10
12.29606255117946
 20
-50.8757920879755
 30
0.0
 10
12.13155924175878
 20
-50.63842500904178
 30
0.0
 10
11.85560709339027
 20
-50.24120549959248
 30
0.0
 10
11.54899359520303
 20
-49.86396754395762
 30
0.0
 10
11.16021456969259
 20
-49.56389972719236
 30
0.0
 10
10.74129095868621
 20
-49.2404052611274
 30
0.0
 10
10.29273952650668
 20
-49.23971624203035
 30
0.0
 10
9.805775279666612
 20
-49.42299532184564
 30
0.0
 10
9.857968476268148
 20
-49.46226941037749
 30
0.0
 10
9.895864526605896
 20
-49.49017468380801
 30
0.0
 10
9.93272704829807
 20
-49.51842446678706
 30
0.0
 10
10.48687065710051
 20
-49.95078395018592
 30
0.0
 10
10.89993760578196
 20
-50.48511825994817
 30
0.0
 10
11.12455783142025
 20
-51.15587835092631
 30
0.0
 10
11.1982828748046
 20
-51.37705348107935
 30
0.0
 10
11.16090358878964
 20
-51.57411294283564
 30
0.0
 10
11.01758761660324
 20
-51.76393770407291
 30
0.0
 10
10.39884846745237
 20
-52.5828369009168
 30
0.0
 10
9.166365557604243
 20
-52.73166502587959
 30
0.0
 10
8.443584524798826
 20
-52.18389484372486
 30
0.0
 10
7.780403643888233
 20
-51.67987737423281
 30
0.0
 10
7.019726560745069
 20
-51.41563855051415
 30
0.0
 10
6.173438854793446
 20
-51.53759493069199
 30
0.0
 10
5.381755912283033
 20
-51.65231661035081
 30
0.0
 10
4.611604816555432
 20
-51.55654295586087
 30
0.0
 10
3.860401745996705
 20
-51.32365450105798
 30
0.0
 10
3.480063204425123
 20
-51.20617674501096
 30
0.0
 10
3.11832817847389
 20
-51.03977863307339
 30
0.0
 10
2.70698377753506
 20
-51.10799152368133
 30
0.0
 10
2.679595268427323
 20
-51.12383896291349
 30
0.0
 10
2.652206759319587
 20
-51.13968640214564
 30
0.0
 10
2.624990504986114
 20
-51.15553384137779
 30
0.0
 10
3.608909775573467
 20
-51.76393770407291
 30
0.0
 10
4.644849987988093
 20
-52.24073891923148
 30
0.0
 10
5.779492186055127
 20
-52.51152342437212
 30
0.0
 10
6.324506291821652
 20
-52.64140352416604
 30
0.0
 10
6.828868270862228
 20
-52.92183429666537
 30
0.0
 10
7.341670733841666
 20
-53.15575628011384
 30
0.0
 10
7.529600692562044
 20
-53.24119464814804
 30
0.0
 10
7.702027721598799
 20
-53.35247123232161
 30
0.0
 10
7.875660534055391
 20
-53.46340330694665
 30
0.0
 10
8.882317434845394
 20
-54.10694714359132
 30
0.0
 10
8.945190427451204
 20
-55.33856877956813
 30
0.0
 10
8.604298229185732
 20
-56.09717880542015
 30
0.0
 10
8.4611545117736
 20
-56.41412759006314
 30
0.0
 10
8.26547308821141
 20
-56.67250975145687
 30
0.0
 10
7.969883895576974
 20
-56.88128253786302
 30
0.0
 10
7.474995929120834
 20
-57.23199325826145
 30
0.0
 10
7.122045896656989
 20
-57.72429740310365
 30
0.0
 10
6.785115558199554
 20
-58.2241807580134
 30
0.0
 10
6.374460176357774
 20
-58.83568520664524
 30
0.0
 10
6.009107800147029
 20
-59.47991806238696
 30
0.0
 10
5.50319552813809
 20
-60.02148707266824
 30
0.0
 10
5.334558104135111
 20
-60.20269909519239
 30
0.0
 10
5.168159992197544
 20
-60.38735621320178
 30
0.0
 10
4.948535155012866
 20
-60.50931259337962
 30
0.0
  0
SPLINE
  5
58
330
47
100
AcDbEntity
  8
Layer 1
 62
   177
420
  3027090
370
     9
100
AcDbSpline
210
0.0
220
0.0
230
1.0
 70
    11
 71
     3
 72
    26
 73
    22
 74
     0
 42
0.0000000001
 43
0.0000000001
 40
0.0
 40
0.0
 40
0.0
 40
0.0
 40
1.0
 40
1.0
 40
1.0
 40
2.0
 40
2.0
 40
2.0
 40
3.0
 40
3.0
 40
3.0
 40
4.0
 40
4.0
 40
4.0
 40
5.0
 40
5.0
 40
5.0
 40
6.0
 40
6.0
 40
6.0
 40
7.0
 40
7.0
 40
7.0
 40
7.0
 10
12.00305718015896
 20
-59.88127168641857
 30
0.0
 10
12.47537977118671
 20
-60.82695039711965
 30
0.0
 10
11.93432752522823
 20
-61.76194931181646
 30
0.0
 10
11.38466254055661
 20
-63.95337454998388
 30
0.0
 10
11.31317680923768
 20
-64.24000649435666
 30
0.0
 10
11.23617892514234
 20
-64.50941296130321
 30
0.0
 10
11.34969482138133
 20
-64.7905327528996
 30
0.0
 10
11.40223252753139
 20
-64.92247990998466
 30
0.0
 10
11.52591145545186
 20
-65.0223876790569
 30
0.0
 10
11.66095919847365
 20
-65.00654023982476
 30
0.0
 10
11.82425672447449
 20
-64.98828123375293
 30
0.0
 10
11.78687743845953
 20
-64.81740449768454
 30
0.0
 10
11.76724039419361
 20
-64.71818574770934
 30
0.0
 10
11.73657904437488
 20
-64.56763507500392
 30
0.0
 10
12.59423556542783
 20
-62.48541936371893
 30
0.0
 10
12.62127956498704
 20
-62.35898435941026
 30
0.0
 10
12.76183946078524
 20
-61.68753524933506
 30
0.0
 10
12.86226399418027
 20
-61.11633841788064
 30
0.0
 10
13.21400824322428
 20
-60.04388019332237
 30
0.0
 10
13.00971408094896
 20
-59.99668238517445
 30
0.0
 10
12.20666232333722
 20
-59.92812498501797
 30
0.0
 10
12.00305718015896
 20
-59.88127168641857
 30
0.0
  0
SPLINE
  5
59
330
47
100
AcDbEntity
  8
Layer 1
 62
   177
420
  3027090
370
     9
100
AcDbSpline
210
0.0
220
0.0
230
1.0
 70
    11
 71
     3
 72
    23
 73
    19
 74
     0
 42
0.0000000001
 43
0.0000000001
 40
0.0
 40
0.0
 40
0.0
 40
0.0
 40
1.0
 40
1.0
 40
1.0
 40
2.0
 40
2.0
 40
2.0
 40
3.0
 40
3.0
 40
3.0
 40
4.0
 40
4.0
 40
4.0
 40
5.0
 40
5.0
 40
5.0
 40
6.0
 40
6.0
 40
6.0
 40
6.0
 10
9.98457573535108
 20
-59.29801702076578
 30
0.0
 10
10.24381917061613
 20
-59.36244030633995
 30
0.0
 10
11.33212483440655
 20
-58.46292587514122
 30
0.0
 10
11.72555473882208
 20
-57.8710584707753
 30
0.0
 10
11.80479193498283
 20
-58.33821341857517
 30
0.0
 10
11.87524413765619
 20
-58.86600204691545
 30
0.0
 10
12.00529649222437
 20
-59.19879827079058
 30
0.0
 10
12.24025200431841
 20
-58.82431639154392
 30
0.0
 10
12.30019666576176
 20
-58.30479599236825
 30
0.0
 10
12.32861870351507
 20
-57.90240883969107
 30
0.0
 10
12.34171006635902
 20
-57.71878525032725
 30
0.0
 10
11.72124836946552
 20
-57.2285481627762
 30
0.0
 10
11.53004557003416
 20
-57.2051215134765
 30
0.0
 10
11.25254312869728
 20
-57.17135957772105
 30
0.0
 10
10.69202609324713
 20
-57.45489093615711
 30
0.0
 10
10.47946370180722
 20
-57.61887748125501
 30
0.0
 10
10.44449598263193
 20
-58.15734590559956
 30
0.0
 10
10.22762722183545
 20
-58.8680691042066
 30
0.0
 10
9.98457573535108
 20
-59.29801702076578
 30
0.0
  0
SPLINE
  5
5A
330
47
100
AcDbEntity
  8
Layer 1
 62
   177
420
  3027090
370
     9
100
AcDbSpline
210
0.0
220
0.0
230
1.0
 70
    11
 71
     3
 72
    56
 73
    52
 74
     0
 42
0.0000000001
 43
0.0000000001
 40
0.0
 40
0.0
 40
0.0
 40
0.0
 40
1.0
 40
1.0
 40
1.0
 40
2.0
 40
2.0
 40
2.0
 40
3.0
 40
3.0
 40
3.0
 40
4.0
 40
4.0
 40
4.0
 40
5.0
 40
5.0
 40
5.0
 40
6.0
 40
6.0
 40
6.0
 40
7.0
 40
7.0
 40
7.0
 40
8.0
 40
8.0
 40
8.0
 40
9.0
 40
9.0
 40
9.0
 40
10.0
 40
10.0
 40
10.0
 40
11.0
 40
11.0
 40
11.0
 40
12.0
 40
12.0
 40
12.0
 40
13.0
 40
13.0
 40
13.0
 40
14.0
 40
14.0
 40
14.0
 40
15.0
 40
15.0
 40
15.0
 40
16.0
 40
16.0
 40
16.0
 40
17.0
 40
17.0
 40
17.0
 40
17.0
 10
8.687497285154516
 20
-56.52195907875146
 30
0.0
 10
9.192203773743616
 20
-56.46029186956549
 30
0.0
 10
10.02436658820571
 20
-56.82719453874459
 30
0.0
 10
10.45552028818473
 20
-56.39828015083098
 30
0.0
 10
10.88253987358145
 20
-55.97281085840263
 30
0.0
 10
11.5803439641188
 20
-55.41470538979216
 30
0.0
 10
12.15843098654373
 20
-56.24256183489769
 30
0.0
 10
12.20890163540264
 20
-56.31387531144237
 30
0.0
 10
12.90498317819737
 20
-56.41137151367494
 30
0.0
 10
13.00161810655862
 20
-56.40000269857362
 30
0.0
 10
13.90750596440507
 20
-56.2921712098853
 30
0.0
 10
14.44993624855766
 20
-55.20145397925519
 30
0.0
 10
14.62942572333917
 20
-54.17998316787862
 30
0.0
 10
14.51384276980904
 20
-54.18962943523731
 30
0.0
 10
14.15210774385781
 20
-53.76519367145454
 30
0.0
 10
14.04479301949227
 20
-53.76691621919716
 30
0.0
 10
13.7590223489908
 20
-53.77139484332799
 30
0.0
 10
13.34147677617852
 20
-54.39254555931853
 30
0.0
 10
13.14579535261633
 20
-54.0666395264139
 30
0.0
 10
12.96578911351203
 20
-53.76588269055159
 30
0.0
 10
13.09584146808021
 20
-53.5385063885251
 30
0.0
 10
13.27429741421615
 20
-53.25084091550674
 30
0.0
 10
13.58521728175995
 20
-52.75164657969403
 30
0.0
 10
13.99742295657009
 20
-51.4356201043286
 30
0.0
 10
14.29662949946404
 20
-50.9281575393513
 30
0.0
 10
14.2871554868796
 20
-50.25739744837315
 30
0.0
 10
14.0644300637582
 20
-49.34341361613637
 30
0.0
 10
14.05461154162524
 20
-48.67248127038396
 30
0.0
 10
13.66187065630676
 20
-48.36035561942033
 30
0.0
 10
13.64068331907247
 20
-48.4013522556948
 30
0.0
 10
13.34216579527557
 20
-47.95331758783806
 30
0.0
 10
12.97216254015974
 20
-47.81327445636266
 30
0.0
 10
13.2184868673551
 20
-47.9779500205576
 30
0.0
 10
12.84831135746501
 20
-47.83773463430793
 30
0.0
 10
13.23932969504086
 20
-48.44510496835748
 30
0.0
 10
13.59400227524733
 20
-48.16777478179486
 30
0.0
 10
13.81586642449742
 20
-48.80942381592265
 30
0.0
 10
14.01413166967355
 20
-49.38268770466822
 30
0.0
 10
14.13281520914041
 20
-50.63015677987718
 30
0.0
 10
13.9348944735128
 20
-51.12935111568989
 30
0.0
 10
13.78675536764706
 20
-51.50383299493654
 30
0.0
 10
12.53808050901826
 20
-51.13348523027219
 30
0.0
 10
12.11622856684941
 20
-51.18033852887159
 30
0.0
 10
11.34280463041083
 20
-52.03920083334437
 30
0.0
 10
10.96022677677383
 20
-52.5290934113469
 30
0.0
 10
9.785276961529375
 20
-52.89702960917158
 30
0.0
 10
9.565652124344698
 20
-52.9662760284251
 30
0.0
 10
9.06042887143281
 20
-53.75658093274141
 30
0.0
 10
8.867675779033082
 20
-53.91126572002913
 30
0.0
 10
9.239229327117277
 20
-54.68090005143394
 30
0.0
 10
9.206500920007404
 20
-55.83604056763821
 30
0.0
 10
8.687497285154516
 20
-56.52195907875146
 30
0.0
  0
SPLINE
  5
5B
330
47
100
AcDbEntity
  8
Layer 1
 62
   177
420
  3027090
370
     9
100
AcDbSpline
210
0.0
220
0.0
230
1.0
 70
    11
 71
     3
 72
    56
 73
    52
 74
     0
 42
0.0000000001
 43
0.0000000001
 40
0.0
 40
0.0
 40
0.0
 40
0.0
 40
1.0
 40
1.0
 40
1.0
 40
2.0
 40
2.0
 40
2.0
 40
3.0
 40
3.0
 40
3.0
 40
4.0
 40
4.0
 40
4.0
 40
5.0
 40
5.0
 40
5.0
 40
6.0
 40
6.0
 40
6.0
 40
7.0
 40
7.0
 40
7.0
 40
8.0
 40
8.0
 40
8.0
 40
9.0
 40
9.0
 40
9.0
 40
10.0
 40
10.0
 40
10.0
 40
11.0
 40
11.0
 40
11.0
 40
12.0
 40
12.0
 40
12.0
 40
13.0
 40
13.0
 40
13.0
 40
14.0
 40
14.0
 40
14.0
 40
15.0
 40
15.0
 40
15.0
 40
16.0
 40
16.0
 40
16.0
 40
17.0
 40
17.0
 40
17.0
 40
17.0
 10
20.36929931131393
 20
-53.11510415338789
 30
0.0
 10
20.38945311990264
 20
-53.12096081571282
 30
0.0
 10
20.41098496668545
 20
-53.12922904487742
 30
0.0
 10
20.43441161598515
 20
-53.1399088408817
 30
0.0
 10
20.66351046575426
 20
-53.24774032957001
 30
0.0
 10
20.85781385112235
 20
-53.25290797279789
 30
0.0
 10
21.06434732546308
 20
-53.15747882785647
 30
0.0
 10
21.17269557847419
 20
-53.10786945286887
 30
0.0
 10
21.28776176768153
 20
-53.04654675323142
 30
0.0
 10
21.43590087354728
 20
-52.9607638756487
 30
0.0
 10
21.49791259228177
 20
-52.92459037305358
 30
0.0
 10
21.55992431101627
 20
-52.88876138000698
 30
0.0
 10
21.62159152020224
 20
-52.85224336786333
 30
0.0
 10
21.68480902235657
 20
-52.81400280797705
 30
0.0
 10
21.74837103405943
 20
-52.77645126718783
 30
0.0
 10
21.81262206485934
 20
-52.73958874549566
 30
0.0
 10
21.87894015295041
 20
-52.70134818560939
 30
0.0
 10
21.94611951491278
 20
-52.66345213527164
 30
0.0
 10
22.01364338642367
 20
-52.62762314222504
 30
0.0
 10
22.02794053268746
 20
-52.61935491306044
 30
0.0
 10
22.04172091462846
 20
-52.61212021254142
 30
0.0
 10
22.05567355134372
 20
-52.60419649292534
 30
0.0
 10
22.35488009423767
 20
-52.4312526995658
 30
0.0
 10
22.49216714932487
 20
-52.21180011715538
 30
0.0
 10
22.49836832119832
 20
-51.89450682296388
 30
0.0
 10
22.45961099698927
 20
-51.65093857215671
 30
0.0
 10
22.37761772444032
 20
-51.5045220140336
 30
0.0
 10
22.22689479696064
 20
-51.40771483089807
 30
0.0
 10
22.22689479696064
 20
-51.40771483089807
 30
0.0
 10
22.21225314114833
 20
-51.39737954444232
 30
0.0
 10
22.21225314114833
 20
-51.39737954444232
 30
0.0
 10
21.9630004827905
 20
-51.21651203146671
 30
0.0
 10
21.72425536566269
 20
-51.20583223546243
 30
0.0
 10
21.43693440219285
 20
-51.36051702275015
 30
0.0
 10
21.34977348641603
 20
-51.40771483089807
 30
0.0
 10
21.2562391439915
 20
-51.4604247918224
 30
0.0
 10
21.14358452162383
 20
-51.5251925869451
 30
0.0
 10
21.06727565662554
 20
-51.56928980915629
 30
0.0
 10
20.99200032027283
 20
-51.61407605046454
 30
0.0
 10
20.91534694572603
 20
-51.65817327267574
 30
0.0
 10
20.78477782683506
 20
-51.73499890199681
 30
0.0
 10
20.65472547226688
 20
-51.81148002176936
 30
0.0
 10
20.52226155085902
 20
-51.8852050651537
 30
0.0
 10
20.52226155085902
 20
-51.8852050651537
 30
0.0
 10
20.50727538549818
 20
-51.89381780386682
 30
0.0
 10
20.50727538549818
 20
-51.89381780386682
 30
0.0
 10
20.20582953053882
 20
-52.06813963542047
 30
0.0
 10
20.07474364732506
 20
-52.28518065099121
 30
0.0
 10
20.08387315036098
 20
-52.59558375421222
 30
0.0
 10
20.11091714992019
 20
-52.80297850242426
 30
0.0
 10
20.20479600189325
 20
-52.97351072894413
 30
0.0
 10
20.36929931131393
 20
-53.11510415338789
 30
0.0
  0
SPLINE
  5
5C
330
47
100
AcDbEntity
  8
Layer 1
 62
   177
420
  3027090
370
     9
100
AcDbSpline
210
0.0
220
0.0
230
1.0
 70
    11
 71
     3
 72
    41
 73
    37
 74
     0
 42
0.0000000001
 43
0.0000000001
 40
0.0
 40
0.0
 40
0.0
 40
0.0
 40
1.0
 40
1.0
 40
1.0
 40
2.0
 40
2.0
 40
2.0
 40
3.0
 40
3.0
 40
3.0
 40
4.0
 40
4.0
 40
4.0
 40
5.0
 40
5.0
 40
5.0
 40
6.0
 40
6.0
 40
6.0
 40
7.0
 40
7.0
 40
7.0
 40
8.0
 40
8.0
 40
8.0
 40
9.0
 40
9.0
 40
9.0
 40
10.0
 40
10.0
 40
10.0
 40
11.0
 40
11.0
 40
11.0
 40
12.0
 40
12.0
 40
12.0
 40
12.0
 10
27.22383354354126
 20
-50.31803112891355
 30
0.0
 10
27.24519313554982
 20
-50.32595484852963
 30
0.0
 10
27.26517468936426
 20
-50.33629013498538
 30
0.0
 10
27.28653428137281
 20
-50.34524738324702
 30
0.0
 10
27.5249348889521
 20
-50.45996906290584
 30
0.0
 10
27.74955511459039
 20
-50.45824651516322
 30
0.0
 10
27.95143771002603
 20
-50.3421467973103
 30
0.0
 10
28.00793727598413
 20
-50.30941839020043
 30
0.0
 10
28.06099174645697
 20
-50.26807724437743
 30
0.0
 10
28.11197915963867
 20
-50.21881237893835
 30
0.0
 10
28.42065971511706
 20
-49.92150063856129
 30
0.0
 10
28.67008462824915
 20
-49.67655434956003
 30
0.0
 10
28.89263779659629
 20
-49.44848902843649
 30
0.0
 10
29.18478189374547
 20
-49.15324434535058
 30
0.0
 10
29.23025715415077
 20
-48.89210610756864
 30
0.0
 10
29.05180120801483
 20
-48.52830402432626
 30
0.0
 10
28.97600910733933
 20
-48.445449477906
 30
0.0
 10
28.88712564381989
 20
-48.36569551742247
 30
0.0
 10
28.77757160738894
 20
-48.28146293280811
 30
0.0
 10
28.74932182440989
 20
-48.27474499661187
 30
0.0
 10
28.71762694594559
 20
-48.26699353177006
 30
0.0
 10
28.6845540292872
 20
-48.25665824531431
 30
0.0
 10
28.44133028802856
 20
-48.18224418283291
 30
0.0
 10
28.24909395995162
 20
-48.21462808039426
 30
0.0
 10
28.06857095652452
 20
-48.35966660032328
 30
0.0
 10
27.92387694614403
 20
-48.47524955385341
 30
0.0
 10
27.79089626041339
 20
-48.60874700390684
 30
0.0
 10
27.65171440280929
 20
-48.75068493789914
 30
0.0
 10
27.53664821360195
 20
-48.86644014620353
 30
0.0
 10
27.41951496710346
 20
-48.98581270476744
 30
0.0
 10
27.28929035776101
 20
-49.0984673271351
 30
0.0
 10
27.02677408178497
 20
-49.32791068645275
 30
0.0
 10
26.91377494986878
 20
-49.55700953622186
 30
0.0
 10
26.92548827451863
 20
-49.83778481826972
 30
0.0
 10
26.96614040124458
 20
-50.03553329912307
 30
0.0
 10
27.06398111302567
 20
-50.19228514370193
 30
0.0
 10
27.22383354354126
 20
-50.31803112891355
 30
0.0
  0
SPLINE
  5
5D
330
47
100
AcDbEntity
  8
Layer 1
 62
   177
420
  3027090
370
     9
100
AcDbSpline
210
0.0
220
0.0
230
1.0
 70
    11
 71
     3
 72
    47
 73
    43
 74
     0
 42
0.0000000001
 43
0.0000000001
 40
0.0
 40
0.0
 40
0.0
 40
0.0
 40
1.0
 40
1.0
 40
1.0
 40
2.0
 40
2.0
 40
2.0
 40
3.0
 40
3.0
 40
3.0
 40
4.0
 40
4.0
 40
4.0
 40
5.0
 40
5.0
 40
5.0
 40
6.0
 40
6.0
 40
6.0
 40
7.0
 40
7.0
 40
7.0
 40
8.0
 40
8.0
 40
8.0
 40
9.0
 40
9.0
 40
9.0
 40
10.0
 40
10.0
 40
10.0
 40
11.0
 40
11.0
 40
11.0
 40
12.0
 40
12.0
 40
12.0
 40
13.0
 40
13.0
 40
13.0
 40
14.0
 40
14.0
 40
14.0
 40
14.0
 10
23.65023599669161
 20
-51.58582626748549
 30
0.0
 10
23.79940863120293
 20
-51.88175996966845
 30
0.0
 10
24.09654811680572
 20
-52.03127711372829
 30
0.0
 10
24.40746798434952
 20
-51.96685382815412
 30
0.0
 10
24.72131618305578
 20
-51.9017415234829
 30
0.0
 10
25.04188231795828
 20
-51.82663844190446
 30
0.0
 10
25.35056287343667
 20
-51.75360241761716
 30
0.0
 10
25.35056287343667
 20
-51.75360241761716
 30
0.0
 10
25.60119356998859
 20
-51.69538030391644
 30
0.0
 10
25.60119356998859
 20
-51.69538030391644
 30
0.0
 10
25.70730251093429
 20
-51.67057561642264
 30
0.0
 10
25.79687499355078
 20
-51.62716741330849
 30
0.0
 10
25.87749022790563
 20
-51.55929903224906
 30
0.0
 10
26.02287325738317
 20
-51.4397542189109
 30
0.0
 10
26.10142143444687
 20
-51.27266708787628
 30
0.0
 10
26.13931748478462
 20
-51.00291611138122
 30
0.0
 10
26.12415906464952
 20
-50.84065211402595
 30
0.0
 10
26.05319009765337
 20
-50.68941242222348
 30
0.0
 10
25.89953883901123
 20
-50.49786511324359
 30
0.0
 10
25.87128905603218
 20
-50.48615178859374
 30
0.0
 10
25.83752712027673
 20
-50.47133787800717
 30
0.0
 10
25.80376518452128
 20
-50.44963377645009
 30
0.0
 10
25.63771158213224
 20
-50.34421385460145
 30
0.0
 10
25.4578775978022
 20
-50.3187201480106
 30
0.0
 10
25.23894177971457
 20
-50.3697075611923
 30
0.0
 10
25.14385714432168
 20
-50.39244519139495
 30
0.0
 10
25.05049505667141
 20
-50.41277125475792
 30
0.0
 10
24.95644394992409
 20
-50.434475356315
 30
0.0
 10
24.78780652592111
 20
-50.47271591620127
 30
0.0
 10
24.61262342049615
 20
-50.51199000473311
 30
0.0
 10
24.44243570352481
 20
-50.55436467920169
 30
0.0
 10
24.39213730944016
 20
-50.56676702294859
 30
0.0
 10
24.3409776414842
 20
-50.57779132850139
 30
0.0
 10
24.2899902283025
 20
-50.58916014360271
 30
0.0
 10
24.18991020445599
 20
-50.61051973561126
 30
0.0
 10
24.09568684293441
 20
-50.63119030852276
 30
0.0
 10
24.0162773919994
 20
-50.66426322518116
 30
0.0
 10
23.85263535645004
 20
-50.73316513488616
 30
0.0
 10
23.72998995717514
 20
-50.85581053416105
 30
0.0
 10
23.60837808654582
 20
-51.07491860702294
 30
0.0
 10
23.56927625278824
 20
-51.30126138040385
 30
0.0
 10
23.58271212518071
 20
-51.45146754356075
 30
0.0
 10
23.65023599669161
 20
-51.58582626748549
 30
0.0
  0
SPLINE
  5
5E
330
47
100
AcDbEntity
  8
Layer 1
 62
   177
420
  3027090
370
     9
100
AcDbSpline
210
0.0
220
0.0
230
1.0
 70
    11
 71
     3
 72
    50
 73
    46
 74
     0
 42
0.0000000001
 43
0.0000000001
 40
0.0
 40
0.0
 40
0.0
 40
0.0
 40
1.0
 40
1.0
 40
1.0
 40
2.0
 40
2.0
 40
2.0
 40
3.0
 40
3.0
 40
3.0
 40
4.0
 40
4.0
 40
4.0
 40
5.0
 40
5.0
 40
5.0
 40
6.0
 40
6.0
 40
6.0
 40
7.0
 40
7.0
 40
7.0
 40
8.0
 40
8.0
 40
8.0
 40
9.0
 40
9.0
 40
9.0
 40
10.0
 40
10.0
 40
10.0
 40
11.0
 40
11.0
 40
11.0
 40
12.0
 40
12.0
 40
12.0
 40
13.0
 40
13.0
 40
13.0
 40
14.0
 40
14.0
 40
14.0
 40
15.0
 40
15.0
 40
15.0
 40
15.0
 10
29.5823459127433
 20
-47.48220078023014
 30
0.0
 10
29.6223090203722
 20
-47.56161023116515
 30
0.0
 10
29.70223523563
 20
-47.63223468861278
 30
0.0
 10
29.79318575644059
 20
-47.71474472548451
 30
0.0
 10
29.79318575644059
 20
-47.71474472548451
 30
0.0
 10
29.79525281373174
 20
-47.71732854709845
 30
0.0
 10
29.79525281373174
 20
-47.71732854709845
 30
0.0
 10
30.15629882058593
 20
-47.88631048064995
 30
0.0
 10
30.45119899412331
 20
-47.85203178057171
 30
0.0
 10
30.67237412427635
 20
-47.61208088002407
 30
0.0
 10
30.92248805650549
 20
-47.34026284623786
 30
0.0
 10
31.21325411546058
 20
-47.02451984501471
 30
0.0
 10
31.48886175428056
 20
-46.70429821966074
 30
0.0
 10
31.66180554764011
 20
-46.50413817196772
 30
0.0
 10
31.70521375075425
 20
-46.29743244285272
 30
0.0
 10
31.62459851639941
 20
-46.05196938952868
 30
0.0
 10
31.62459851639941
 20
-46.05196938952868
 30
0.0
 10
31.61701930633186
 20
-46.02285833267832
 30
0.0
 10
31.61701930633186
 20
-46.02285833267832
 30
0.0
 10
31.60461696258496
 20
-45.96446396420333
 30
0.0
 10
31.55707464488851
 20
-45.89849038566079
 30
0.0
 10
31.50195311712451
 20
-45.82304279453383
 30
0.0
 10
31.48679469698941
 20
-45.80168320252528
 30
0.0
 10
31.47163627685432
 20
-45.78032361051672
 30
0.0
 10
31.45647785671921
 20
-45.75810274463687
 30
0.0
 10
31.44545355116642
 20
-45.7510402988921
 30
0.0
 10
31.43374022651657
 20
-45.74311657927603
 30
0.0
 10
31.42202690186672
 20
-45.73398707624012
 30
0.0
 10
31.17053493144348
 20
-45.54519584364842
 30
0.0
 10
30.88528102526479
 20
-45.518668608412
 30
0.0
 10
30.6386121885209
 20
-45.66129556150135
 30
0.0
 10
30.56419812603951
 20
-45.70401474551844
 30
0.0
 10
30.49391817814041
 20
-45.76154784012211
 30
0.0
 10
30.42983940211476
 20
-45.83303357144105
 30
0.0
 10
30.33337672852777
 20
-45.94052055058084
 30
0.0
 10
30.23691405494077
 20
-46.04783527494638
 30
0.0
 10
30.13976236225673
 20
-46.15497774453765
 30
0.0
 10
29.98197698903228
 20
-46.3287828117685
 30
0.0
 10
29.81867946303144
 20
-46.5093058151956
 30
0.0
 10
29.66158310890405
 20
-46.68810627088006
 30
0.0
 10
29.46245658985661
 20
-46.91513806335802
 30
0.0
 10
29.43282876868346
 20
-47.20177000773081
 30
0.0
 10
29.5795898363551
 20
-47.47496607971112
 30
0.0
 10
29.5795898363551
 20
-47.47496607971112
 30
0.0
 10
29.5823459127433
 20
-47.48220078023014
 30
0.0
 10
29.5823459127433
 20
-47.48220078023014
 30
0.0
  0
SPLINE
  5
5F
330
47
100
AcDbEntity
  8
Layer 1
 62
   177
420
  3027090
370
     9
100
AcDbSpline
210
0.0
220
0.0
230
1.0
 70
    11
 71
     3
 72
    17
 73
    13
 74
     0
 42
0.0000000001
 43
0.0000000001
 40
0.0
 40
0.0
 40
0.0
 40
0.0
 40
1.0
 40
1.0
 40
1.0
 40
2.0
 40
2.0
 40
2.0
 40
3.0
 40
3.0
 40
3.0
 40
4.0
 40
4.0
 40
4.0
 40
4.0
 10
15.07952744848706
 20
-55.58110350172973
 30
0.0
 10
15.33325873097571
 20
-55.99796005544496
 30
0.0
 10
15.69895561673498
 20
-56.49784341035471
 30
0.0
 10
16.07481553417574
 20
-56.82271591461377
 30
0.0
 10
16.44206271290338
 20
-57.170670558624
 30
0.0
 10
17.11075574659037
 20
-57.7856201027411
 30
0.0
 10
17.47869194441505
 20
-58.13323023720281
 30
0.0
 10
17.10197075310298
 20
-57.78940970777487
 30
0.0
 10
16.83377006957628
 20
-56.97981226874116
 30
0.0
 10
16.39899901933775
 20
-56.65838485996735
 30
0.0
 10
16.08428954676018
 20
-56.19777559358945
 30
0.0
 10
15.59680853559733
 20
-55.73888887495417
 30
0.0
 10
15.07952744848706
 20
-55.58110350172973
 30
0.0
  0
SPLINE
  5
60
330
47
100
AcDbEntity
  8
Layer 1
 62
   177
420
  3027090
370
     9
100
AcDbSpline
210
0.0
220
0.0
230
1.0
 70
    11
 71
     3
 72
    26
 73
    22
 74
     0
 42
0.0000000001
 43
0.0000000001
 40
0.0
 40
0.0
 40
0.0
 40
0.0
 40
1.0
 40
1.0
 40
1.0
 40
2.0
 40
2.0
 40
2.0
 40
3.0
 40
3.0
 40
3.0
 40
4.0
 40
4.0
 40
4.0
 40
5.0
 40
5.0
 40
5.0
 40
6.0
 40
6.0
 40
6.0
 40
7.0
 40
7.0
 40
7.0
 40
7.0
 10
8.686291501734678
 20
-52.66379664482017
 30
0.0
 10
8.307158743582933
 20
-52.37371960496213
 30
0.0
 10
7.127902558981914
 20
-51.63853622840981
 30
0.0
 10
6.583921981860964
 20
-51.86625703998482
 30
0.0
 10
6.224770777523669
 20
-52.01577418404467
 30
0.0
 10
5.905410426041009
 20
-51.972021471382
 30
0.0
 10
5.541952852347151
 20
-51.88038193147435
 30
0.0
 10
5.354711912723822
 20
-51.83283961377791
 30
0.0
 10
4.417301431187341
 20
-51.61235350272192
 30
0.0
 10
4.100524901318619
 20
-51.71226127179416
 30
0.0
 10
5.430159503850794
 20
-52.05367023438242
 30
0.0
 10
6.917923989155936
 20
-52.51738008669705
 30
0.0
 10
7.308425562409005
 20
-52.77128362395996
 30
0.0
 10
7.274835881427819
 20
-52.60144041653714
 30
0.0
 10
7.36475287359284
 20
-52.61005315525027
 30
0.0
 10
7.478957788928872
 20
-52.65380586791294
 30
0.0
 10
7.601947697752292
 20
-52.70134818560939
 30
0.0
 10
7.791083439892507
 20
-52.85155434876628
 30
0.0
 10
7.846204967656504
 20
-52.74957952240288
 30
0.0
 10
8.10096977879073
 20
-52.27863496956923
 30
0.0
 10
8.410683862914691
 20
-52.69824759967266
 30
0.0
 10
8.686291501734678
 20
-52.66379664482017
 30
0.0
  0
SPLINE
  5
61
330
47
100
AcDbEntity
  8
Layer 1
 62
   177
420
  3027090
370
     9
100
AcDbSpline
210
0.0
220
0.0
230
1.0
 70
    11
 71
     3
 72
    47
 73
    43
 74
     0
 42
0.0000000001
 43
0.0000000001
 40
0.0
 40
0.0
 40
0.0
 40
0.0
 40
1.0
 40
1.0
 40
1.0
 40
2.0
 40
2.0
 40
2.0
 40
3.0
 40
3.0
 40
3.0
 40
4.0
 40
4.0
 40
4.0
 40
5.0
 40
5.0
 40
5.0
 40
6.0
 40
6.0
 40
6.0
 40
7.0
 40
7.0
 40
7.0
 40
8.0
 40
8.0
 40
8.0
 40
9.0
 40
9.0
 40
9.0
 40
10.0
 40
10.0
 40
10.0
 40
11.0
 40
11.0
 40
11.0
 40
12.0
 40
12.0
 40
12.0
 40
13.0
 40
13.0
 40
13.0
 40
14.0
 40
14.0
 40
14.0
 40
14.0
 10
32.77526040847285
 20
-45.4800835389772
 30
0.0
 10
32.77526040847285
 20
-45.4800835389772
 30
0.0
 10
32.7883517713168
 20
-45.49593097820935
 30
0.0
 10
32.7883517713168
 20
-45.49593097820935
 30
0.0
 10
32.96749673654979
 20
-45.71021591739189
 30
0.0
 10
33.19073892399398
 20
-45.78049586529099
 30
0.0
 10
33.51388888051042
 20
-45.72313502546158
 30
0.0
 10
33.67443033012306
 20
-45.69402396861122
 30
0.0
 10
33.8349717797357
 20
-45.66766898814906
 30
0.0
 10
33.99689126754244
 20
-45.64045273381559
 30
0.0
 10
34.18981661471643
 20
-45.60841334580276
 30
0.0
 10
34.39101019105502
 20
-45.57499591959584
 30
0.0
 10
34.58669161461722
 20
-45.53882241700072
 30
0.0
 10
34.8884819791251
 20
-45.48335637968819
 30
0.0
 10
35.06693792526104
 20
-45.32195365620424
 30
0.0
 10
35.15926648426574
 20
-45.01740721530815
 30
0.0
 10
35.16202256065394
 20
-45.01000026001486
 30
0.0
 10
35.16408961794509
 20
-44.98536782729533
 30
0.0
 10
35.16546765613919
 20
-44.96728107599777
 30
0.0
 10
35.16822373252739
 20
-44.92817924224018
 30
0.0
 10
35.17235784710969
 20
-44.8802924149952
 30
0.0
 10
35.18476019085659
 20
-44.8270656897481
 30
0.0
 10
35.16546765613919
 20
-44.76953259514443
 30
0.0
 10
35.15168727419819
 20
-44.71372204828338
 30
0.0
 10
35.13997394954834
 20
-44.66549071148988
 30
0.0
 10
35.12963866309259
 20
-44.62466632998967
 30
0.0
 10
35.1199923957339
 20
-44.58677027965192
 30
0.0
 10
35.10965710927815
 20
-44.55576442028467
 30
0.0
 10
34.89330511280446
 20
-44.21935084615003
 30
0.0
 10
34.66799586806911
 20
-44.12598875849975
 30
0.0
 10
34.25871852442143
 20
-44.20091958530394
 30
0.0
 10
33.9576171790106
 20
-44.25586885829367
 30
0.0
 10
33.69441188393751
 20
-44.30013833527914
 30
0.0
 10
33.45394421906707
 20
-44.33579507355147
 30
0.0
 10
33.24172633717568
 20
-44.3673176972415
 30
0.0
 10
33.02192924521674
 20
-44.41089815512991
 30
0.0
 10
32.87447915844805
 20
-44.53061522324235
 30
0.0
 10
32.71738280432066
 20
-44.65791150142233
 30
0.0
 10
32.63676756996581
 20
-44.82964951136204
 30
0.0
 10
32.61816405434546
 20
-45.07028943100674
 30
0.0
 10
32.65054795190681
 20
-45.2490898866912
 30
0.0
 10
32.68362086856521
 20
-45.384137629713
 30
0.0
 10
32.77526040847285
 20
-45.4800835389772
 30
0.0
  0
SPLINE
  5
62
330
47
100
AcDbEntity
  8
Layer 1
 62
   177
420
  3027090
370
     9
100
AcDbSpline
210
0.0
220
0.0
230
1.0
 70
    11
 71
     3
 72
    62
 73
    58
 74
     0
 42
0.0000000001
 43
0.0000000001
 40
0.0
 40
0.0
 40
0.0
 40
0.0
 40
1.0
 40
1.0
 40
1.0
 40
2.0
 40
2.0
 40
2.0
 40
3.0
 40
3.0
 40
3.0
 40
4.0
 40
4.0
 40
4.0
 40
5.0
 40
5.0
 40
5.0
 40
6.0
 40
6.0
 40
6.0
 40
7.0
 40
7.0
 40
7.0
 40
8.0
 40
8.0
 40
8.0
 40
9.0
 40
9.0
 40
9.0
 40
10.0
 40
10.0
 40
10.0
 40
11.0
 40
11.0
 40
11.0
 40
12.0
 40
12.0
 40
12.0
 40
13.0
 40
13.0
 40
13.0
 40
14.0
 40
14.0
 40
14.0
 40
15.0
 40
15.0
 40
15.0
 40
16.0
 40
16.0
 40
16.0
 40
17.0
 40
17.0
 40
17.0
 40
18.0
 40
18.0
 40
18.0
 40
19.0
 40
19.0
 40
19.0
 40
19.0
 10
36.30372720446574
 20
-44.09119329409873
 30
0.0
 10
36.35195854125924
 20
-44.17594264303587
 30
0.0
 10
36.39261066798518
 20
-44.24966768642022
 30
0.0
 10
36.44222004297278
 20
-44.29548745637405
 30
0.0
 10
36.44222004297278
 20
-44.29548745637405
 30
0.0
 10
36.44773219574918
 20
-44.29979382573061
 30
0.0
 10
36.44773219574918
 20
-44.29979382573061
 30
0.0
 10
36.72540689186032
 20
-44.56231010170664
 30
0.0
 10
37.06233723031775
 20
-44.51855738904398
 30
0.0
 10
37.28557941776194
 20
-44.38971081789563
 30
0.0
 10
37.28557941776194
 20
-44.38971081789563
 30
0.0
 10
37.29384764692654
 20
-44.38488768421628
 30
0.0
 10
37.29384764692654
 20
-44.38488768421628
 30
0.0
 10
37.48952907048873
 20
-44.26878796636336
 30
0.0
 10
37.67694226488632
 20
-44.13959688566649
 30
0.0
 10
37.87469074573966
 20
-44.0031711044506
 30
0.0
 10
37.92981227350366
 20
-43.96561956366138
 30
0.0
 10
37.98424478217061
 20
-43.92806802287215
 30
0.0
 10
38.03867729083755
 20
-43.89051648208293
 30
0.0
 10
38.03867729083755
 20
-43.89051648208293
 30
0.0
 10
38.10068900957205
 20
-43.84900308148567
 30
0.0
 10
38.10068900957205
 20
-43.84900308148567
 30
0.0
 10
38.35149196089824
 20
-43.67915987406285
 30
0.0
 10
38.50789929592858
 20
-43.56581623259813
 30
0.0
 10
38.56164278549848
 20
-43.3689290256161
 30
0.0
 10
38.57886826292473
 20
-43.30950112849554
 30
0.0
 10
38.59333766396278
 20
-43.25007323137498
 30
0.0
 10
38.60849608409788
 20
-43.19047307948016
 30
0.0
 10
38.60849608409788
 20
-43.19047307948016
 30
0.0
 10
38.61400823687428
 20
-43.17186956385981
 30
0.0
 10
38.61400823687428
 20
-43.17186956385981
 30
0.0
 10
38.57955728202178
 20
-42.99961478959732
 30
0.0
 10
38.54786240355748
 20
-42.85061440986026
 30
0.0
 10
38.46449109281443
 20
-42.73640949452423
 30
0.0
 10
38.44726561538818
 20
-42.71246608090175
 30
0.0
 10
38.41488171782684
 20
-42.68438855269696
 30
0.0
 10
38.38180880116844
 20
-42.65407171242676
 30
0.0
 10
38.34873588451004
 20
-42.6249606555764
 30
0.0
 10
38.31152885326934
 20
-42.59154322936948
 30
0.0
 10
38.27569986022274
 20
-42.55209688606337
 30
0.0
 10
38.25847438279649
 20
-42.54692924283549
 30
0.0
 10
38.2405598862732
 20
-42.53986679709073
 30
0.0
 10
38.22333440884695
 20
-42.53108180360334
 30
0.0
 10
37.97804361029716
 20
-42.41791041691288
 30
0.0
 10
37.76238063292052
 20
-42.43014050588553
 30
0.0
 10
37.54878471283503
 20
-42.56639403232715
 30
0.0
 10
37.42407225626899
 20
-42.64614799281069
 30
0.0
 10
37.29660372331474
 20
-42.73261988949046
 30
0.0
 10
37.17395832403984
 20
-42.81547443591072
 30
0.0
 10
37.02237412268885
 20
-42.91831053614543
 30
0.0
 10
36.86527776856146
 20
-43.02476398663964
 30
0.0
 10
36.70266926165767
 20
-43.12484401048615
 30
0.0
 10
36.28305663155424
 20
-43.38443195529972
 30
0.0
 10
36.18521591977314
 20
-43.58562553163832
 30
0.0
 10
36.27341036419554
 20
-44.036244021109
 30
0.0
 10
36.28374565065129
 20
-44.05433077240656
 30
0.0
 10
36.29408093710704
 20
-44.07327879757543
 30
0.0
 10
36.30372720446574
 20
-44.09119329409873
 30
0.0
  0
ENDBLK
  5
4A
330
47
100
AcDbEntity
  8
0
100
AcDbBlockEnd
  0
ENDSEC
  0
SECTION
  2
ENTITIES
  0
POLYLINE
  5
3C
330
1F
100
AcDbEntity
  8
Layer 1
 62
   240
420
 15539236
370
     9
100
AcDb2dPolyline
 66
     1
 10
0.0
 20
0.0
 30
0.0
  0
VERTEX
  5
3D
330
3C
100
AcDbEntity
  8
Layer 1
 62
   240
420
 15539236
370
     9
100
AcDbVertex
100
AcDb2dVertex
 10
48.00017088643746
 20
-63.31017522288774
 30
0.0
  0
VERTEX
  5
3E
330
3C
100
AcDbEntity
  8
Layer 1
 62
   240
420
 15539236
370
     9
100
AcDbVertex
100
AcDb2dVertex
 10
23.5005465978575
 20
-77.45504826622651
 30
0.0
  0
VERTEX
  5
3F
330
3C
100
AcDbEntity
  8
Layer 1
 62
   240
420
 15539236
370
     9
100
AcDbVertex
100
AcDb2dVertex
 10
-0.9994222002709778
 20
-63.31017522288774
 30
0.0
  0
VERTEX
  5
40
330
3C
100
AcDbEntity
  8
Layer 1
 62
   240
420
 15539236
370
     9
100
AcDbVertex
100
AcDb2dVertex
 10
-0.9994222002709778
 20
-35.01974011711312
 30
0.0
  0
VERTEX
  5
41
330
3C
100
AcDbEntity
  8
Layer 1
 62
   240
420
 15539236
370
     9
100
AcDbVertex
100
AcDb2dVertex
 10
23.5005465978575
 20
-20.8750393285486
 30
0.0
  0
VERTEX
  5
42
330
3C
100
AcDbEntity
  8
Layer 1
 62
   240
420
 15539236
370
     9
100
AcDbVertex
100
AcDb2dVertex
 10
48.00017088643746
 20
-35.01974011711312
 30
0.0
  0
VERTEX
  5
43
330
3C
100
AcDbEntity
  8
Layer 1
 62
   240
420
 15539236
370
     9
100
AcDbVertex
100
AcDb2dVertex
 10
48.00017088643746
 20
-63.31017522288774
 30
0.0
  0
SEQEND
  5
44
330
3C
100
AcDbEntity
  8
Layer 1
370
     9
  0
SPLINE
  5
45
330
1F
100
AcDbEntity
  8
Layer 1
 62
   240
420
 15539236
370
     9
100
AcDbSpline
210
0.0
220
0.0
230
1.0
 70
    11
 71
     3
 72
    17
 73
    13
 74
     0
 42
0.0000000001
 43
0.0000000001
 40
0.0
 40
0.0
 40
0.0
 40
0.0
 40
1.0
 40
1.0
 40
1.0
 40
2.0
 40
2.0
 40
2.0
 40
3.0
 40
3.0
 40
3.0
 40
4.0
 40
4.0
 40
4.0
 40
4.0
 10
3.249930826010434
 20
-36.75003932457985
 30
0.0
 10
3.249930826010434
 20
-37.44026420504966
 30
0.0
 10
2.690447319205861
 20
-37.9999199666285
 30
0.0
 10
2.000050183961793
 20
-37.9999199666285
 30
0.0
 10
1.309653048717726
 20
-37.9999199666285
 30
0.0
 10
0.7499972871388896
 20
-37.44026420504966
 30
0.0
 10
0.7499972871388896
 20
-36.75003932457985
 30
0.0
 10
0.7499972871388896
 20
-36.05964218933578
 30
0.0
 10
1.309653048717726
 20
-35.49998642775695
 30
0.0
 10
2.000050183961793
 20
-35.49998642775695
 30
0.0
 10
2.690447319205861
 20
-35.49998642775695
 30
0.0
 10
3.249930826010434
 20
-36.05964218933578
 30
0.0
 10
3.249930826010434
 20
-36.75003932457985
 30
0.0
  0
SPLINE
  5
46
330
1F
100
AcDbEntity
  8
Layer 1
 62
   240
420
 15539236
370
     9
100
AcDbSpline
210
0.0
220
0.0
230
1.0
 70
    11
 71
     3
 72
    17
 73
    13
 74
     0
 42
0.0000000001
 43
0.0000000001
 40
0.0
 40
0.0
 40
0.0
 40
0.0
 40
1.0
 40
1.0
 40
1.0
 40
2.0
 40
2.0
 40
2.0
 40
3.0
 40
3.0
 40
3.0
 40
4.0
 40
4.0
 40
4.0
 40
4.0
 10
46.25006237993054
 20
-61.37540959837143
 30
0.0
 10
46.25006237993054
 20
-62.06546222406697
 30
0.0
 10
45.69057887312597
 20
-62.62529024042007
 30
0.0
 10
45.0001817378819
 20
-62.62529024042007
 30
0.0
 10
44.30978460263783
 20
-62.62529024042007
 30
0.0
 10
43.74995658628473
 20
-62.06546222406697
 30
0.0
 10
43.74995658628473
 20
-61.37540959837143
 30
0.0
 10
43.74995658628473
 20
-60.68501246312736
 30
0.0
 10
44.30978460263783
 20
-60.12518444677426
 30
0.0
 10
45.0001817378819
 20
-60.12518444677426
 30
0.0
 10
45.69057887312597
 20
-60.12518444677426
 30
0.0
 10
46.25006237993054
 20
-60.68501246312736
 30
0.0
 10
46.25006237993054
 20
-61.37540959837143
 30
0.0
  0
INSERT
  5
48
330
1F
100
AcDbEntity
  8
Layer 1
100
AcDbBlockReference
  2
block 2
 10
0.0
 20
0.0
 30
0.0
  0
ENDSEC
  0
SECTION
  2
OBJECTS
  0
DICTIONARY
  5
C
330
0
100
AcDbDictionary
281
     1
  3
ACAD_GROUP
350
D
  3
ACAD_LAYOUT
350
1A
  3
ACAD_MLINESTYLE
350
17
  3
ACAD_PLOTSETTINGS
350
19
  3
ACAD_PLOTSTYLENAME
350
E
  3
ACAD_TABLESTYLE
350
63
  3
ACAD_VISUALSTYLE
350
2A
  0
DICTIONARY
  5
D
102
{ACAD_REACTORS
330
C
102
}
330
C
100
AcDbDictionary
281
     1
  0
DICTIONARY
  5
1A
102
{ACAD_REACTORS
330
C
102
}
330
C
100
AcDbDictionary
281
     1
  3
Layout1
350
1E
  3
Layout2
350
26
  3
Model
350
22
  0
DICTIONARY
  5
17
102
{ACAD_REACTORS
330
C
102
}
330
C
100
AcDbDictionary
281
     1
  3
Standard
350
18
  0
DICTIONARY
  5
19
102
{ACAD_REACTORS
330
C
102
}
330
C
100
AcDbDictionary
281
     1
  0
ACDBDICTIONARYWDFLT
  5
E
102
{ACAD_REACTORS
330
C
102
}
330
C
100
AcDbDictionary
281
     1
  3
Normal
350
F
100
AcDbDictionaryWithDefault
340
F
  0
DICTIONARY
  5
63
102
{ACAD_REACTORS
330
C
102
}
330
C
100
AcDbDictionary
281
     1
  0
DICTIONARY
  5
2A
102
{ACAD_REACTORS
330
C
102
}
330
C
100
AcDbDictionary
281
     1
  3
2dWireframe
350
2F
  3
3D Hidden
350
31
  3
3dWireframe
350
30
  3
Basic
350
32
  3
Brighten
350
36
  3
ColorChange
350
3A
  3
Conceptual
350
34
  3
Dim
350
35
  3
Facepattern
350
39
  3
Flat
350
2B
  3
FlatWithEdges
350
2C
  3
Gouraud
350
2D
  3
GouraudWithEdges
350
2E
  3
Linepattern
350
38
  3
Realistic
350
33
  3
Thicken
350
37
  0
LAYOUT
  5
1E
102
{ACAD_REACTORS
330
1A
102
}
330
1A
100
AcDbPlotSettings
  1

  2
none_device
  4

  6

 40
0.0
 41
0.0
 42
0.0
 43
0.0
 44
0.0
 45
0.0
 46
0.0
 47
0.0
 48
0.0
 49
0.0
140
0.0
141
0.0
142
1.0
143
1.0
 70
   688
 72
     0
 73
     0
 74
     5
  7

 75
    16
 76
     0
 77
     2
 78
   300
147
1.0
148
0.0
149
0.0
100
AcDbLayout
  1
Layout1
 70
     1
 71
     1
 10
0.0
 20
0.0
 11
12.0
 21
9.0
 12
0.0
 22
0.0
 32
0.0
 14
1.000000000000000E+20
 24
1.000000000000000E+20
 34
1.000000000000000E+20
 15
-1.000000000000000E+20
 25
-1.000000000000000E+20
 35
-1.000000000000000E+20
146
0.0
 13
0.0
 23
0.0
 33
0.0
 16
1.0
 26
0.0
 36
0.0
 17
0.0
 27
1.0
 37
0.0
 76
     0
330
1B
  0
LAYOUT
  5
26
102
{ACAD_REACTORS
330
1A
102
}
330
1A
100
AcDbPlotSettings
  1

  2
none_device
  4

  6

 40
0.0
 41
0.0
 42
0.0
 43
0.0
 44
0.0
 45
0.0
 46
0.0
 47
0.0
 48
0.0
 49
0.0
140
0.0
141
0.0
142
1.0
143
1.0
 70
   688
 72
     0
 73
     0
 74
     5
  7

 75
    16
 76
     0
 77
     2
 78
   300
147
1.0
148
0.0
149
0.0
100
AcDbLayout
  1
Layout2
 70
     1
 71
     2
 10
0.0
 20
0.0
 11
0.0
 21
0.0
 12
0.0
 22
0.0
 32
0.0
 14
0.0
 24
0.0
 34
0.0
 15
0.0
 25
0.0
 35
0.0
146
0.0
 13
0.0
 23
0.0
 33
0.0
 16
1.0
 26
0.0
 36
0.0
 17
0.0
 27
1.0
 37
0.0
 76
     0
330
23
  0
LAYOUT
  5
22
102
{ACAD_REACTORS
330
1A
102
}
330
1A
100
AcDbPlotSettings
  1

  2
none_device
  4

  6

 40
0.0
 41
0.0
 42
0.0
 43
0.0
 44
0.0
 45
0.0
 46
0.0
 47
0.0
 48
0.0
 49
0.0
140
0.0
141
0.0
142
1.0
143
1.0
 70
  1712
 72
     0
 73
     0
 74
     0
  7

 75
     0
 76
     0
 77
     2
 78
   300
147
1.0
148
0.0
149
0.0
100
AcDbLayout
  1
Model
 70
     1
 71
     0
 10
0.0
 20
0.0
 11
12.0
 21
9.0
 12
0.0
 22
0.0
 32
0.0
 14
1.000000000000000E+20
 24
1.000000000000000E+20
 34
1.000000000000000E+20
 15
-1.000000000000000E+20
 25
-1.000000000000000E+20
 35
-1.000000000000000E+20
146
0.0
 13
0.0
 23
0.0
 33
0.0
 16
1.0
 26
0.0
 36
0.0
 17
0.0
 27
1.0
 37
0.0
 76
     0
330
1F
331
29
  0
MLINESTYLE
  5
18
102
{ACAD_REACTORS
330
17
102
}
330
17
100
AcDbMlineStyle
  2
Standard
 70
     0
  3

 62
   256
 51
90.0
 52
90.0
 71
     2
 49
0.5
 62
   256
  6
BYLAYER
 49
-0.5
 62
   256
  6
BYLAYER
  0
ACDBPLACEHOLDER
  5
F
102
{ACAD_REACTORS
330
E
102
}
330
E
  0
VISUALSTYLE
  5
2F
102
{ACAD_REACTORS
330
2A
102
}
330
2A
100
AcDbVisualStyle
  2
2dWireframe
 70
     4
 71
     0
 72
     2
 73
     0
 90
        0
 40
-0.6
 41
-30.0
 62
     5
 63
     7
421
 16777215
 74
     1
 91
        4
 64
     7
 65
   257
 75
     1
175
     1
 42
1.0
 92
        0
 66
   257
 43
1.0
 76
     1
 77
     6
 78
     2
 67
     7
 79
     5
170
     0
171
     0
290
     0
174
     0
 93
        1
 44
0.0
173
     0
291
     0
 45
0.0
1001
ACAD
1000
AcDbSavedByObjectVersion
1070
     0
  0
VISUALSTYLE
  5
31
102
{ACAD_REACTORS
330
2A
102
}
330
2A
100
AcDbVisualStyle
  2
3D Hidden
 70
     6
 71
     1
 72
     2
 73
     2
 90
        0
 40
-0.6
 41
-30.0
 62
     5
 63
     7
421
 16777215
 74
     2
 91
        2
 64
     7
 65
   257
 75
     2
175
     1
 42
40.0
 92
        0
 66
   257
 43
1.0
 76
     1
 77
     6
 78
     2
 67
     7
 79
     3
170
     0
171
     0
290
     0
174
     0
 93
        1
 44
0.0
173
     0
291
     0
 45
0.0
1001
ACAD
1000
AcDbSavedByObjectVersion
1070
     0
  0
VISUALSTYLE
  5
30
102
{ACAD_REACTORS
330
2A
102
}
330
2A
100
AcDbVisualStyle
  2
3dWireframe
 70
     5
 71
     0
 72
     2
 73
     0
 90
        0
 40
-0.6
 41
-30.0
 62
     5
 63
     7
421
 16777215
 74
     1
 91
        4
 64
     7
 65
   257
 75
     1
175
     1
 42
1.0
 92
        0
 66
   257
 43
1.0
 76
     1
 77
     6
 78
     2
 67
     7
 79
     5
170
     0
171
     0
290
     0
174
     0
 93
        1
 44
0.0
173
     0
291
     0
 45
0.0
1001
ACAD
1000
AcDbSavedByObjectVersion
1070
     0
  0
VISUALSTYLE
  5
32
102
{ACAD_REACTORS
330
2A
102
}
330
2A
100
AcDbVisualStyle
  2
Basic
 70
     7
 71
     1
 72
     0
 73
     1
 90
        0
 40
-0.6
 41
-30.0
 62
     5
 63
     7
421
 16777215
 74
     0
 91
        4
 64
     7
 65
   257
 75
     1
175
     1
 42
1.0
 92
        8
 66
     7
 43
1.0
 76
     1
 77
     6
 78
     2
 67
     7
 79
     5
170
     0
171
     0
290
     0
174
     0
 93
        1
 44
0.0
173
     0
291
     1
 45
0.0
1001
ACAD
1000
AcDbSavedByObjectVersion
1070
     0
  0
VISUALSTYLE
  5
36
102
{ACAD_REACTORS
330
2A
102
}
330
2A
100
AcDbVisualStyle
  2
Brighten
 70
    12
 71
     2
 72
     2
 73
     0
 90
        0
 40
-0.6
 41
-30.0
 62
     5
 63
     7
421
 16777215
 74
     1
 91
        4
 64
     7
 65
   257
 75
     1
175
     1
 42
1.0
 92
        8
 66
     7
 43
1.0
 76
     1
 77
     6
 78
     2
 67
     7
 79
     5
170
     0
171
     0
290
     0
174
     0
 93
        1
 44
50.0
173
     0
291
     1
 45
0.0
1001
ACAD
1000
AcDbSavedByObjectVersion
1070
     0
  0
VISUALSTYLE
  5
3A
102
{ACAD_REACTORS
330
2A
102
}
330
2A
100
AcDbVisualStyle
  2
ColorChange
 70
    16
 71
     2
 72
     2
 73
     3
 90
        0
 40
-0.6
 41
-30.0
 62
     5
 63
     8
421
  8421504
 74
     1
 91
        4
 64
     7
 65
   257
 75
     1
175
     1
 42
1.0
 92
        8
 66
     8
424
  8421504
 43
1.0
 76
     1
 77
     6
 78
     2
 67
     7
 79
     5
170
     0
171
     0
290
     0
174
     0
 93
        1
 44
0.0
173
     0
291
     1
 45
0.0
1001
ACAD
1000
AcDbSavedByObjectVersion
1070
     0
  0
VISUALSTYLE
  5
34
102
{ACAD_REACTORS
330
2A
102
}
330
2A
100
AcDbVisualStyle
  2
Conceptual
 70
     9
 71
     3
 72
     2
 73
     0
 90
        0
 40
-0.6
 41
-30.0
 62
     5
 63
     7
421
 16777215
 74
     2
 91
        2
 64
     7
 65
   257
 75
     1
175
     1
 42
40.0
 92
        8
 66
     7
 43
1.0
 76
     1
 77
     6
 78
     2
 67
     7
 79
     3
170
     0
171
     0
290
     0
174
     0
 93
        1
 44
0.0
173
     0
291
     0
 45
0.0
1001
ACAD
1000
AcDbSavedByObjectVersion
1070
     0
  0
VISUALSTYLE
  5
35
102
{ACAD_REACTORS
330
2A
102
}
330
2A
100
AcDbVisualStyle
  2
Dim
 70
    11
 71
     2
 72
     2
 73
     0
 90
        0
 40
-0.6
 41
-30.0
 62
     5
 63
     7
421
 16777215
 74
     1
 91
        4
 64
     7
 65
   257
 75
     1
175
     1
 42
1.0
 92
        8
 66
     7
 43
1.0
 76
     1
 77
     6
 78
     2
 67
     7
 79
     5
170
     0
171
     0
290
     0
174
     0
 93
        1
 44
-50.0
173
     0
291
     1
 45
0.0
1001
ACAD
1000
AcDbSavedByObjectVersion
1070
     0
  0
VISUALSTYLE
  5
39
102
{ACAD_REACTORS
330
2A
102
}
330
2A
100
AcDbVisualStyle
  2
Facepattern
 70
    15
 71
     2
 72
     2
 73
     0
 90
        0
 40
-0.6
 41
-30.0
 62
     5
 63
     7
421
 16777215
 74
     1
 91
        4
 64
     7
 65
   257
 75
     1
175
     1
 42
1.0
 92
        8
 66
     7
 43
1.0
 76
     1
 77
     6
 78
     2
 67
     7
 79
     5
170
     0
171
     0
290
     0
174
     0
 93
        1
 44
0.0
173
     0
291
     1
 45
0.0
1001
ACAD
1000
AcDbSavedByObjectVersion
1070
     0
  0
VISUALSTYLE
  5
2B
102
{ACAD_REACTORS
330
2A
102
}
330
2A
100
AcDbVisualStyle
  2
Flat
 70
     0
 71
     2
 72
     1
 73
     1
 90
        2
 40
-0.6
 41
30.0
 62
     5
 63
     7
421
 16777215
 74
     0
 91
        4
 64
     7
 65
   257
 75
     1
175
     1
 42
1.0
 92
        8
 66
     7
 43
1.0
 76
     1
 77
     6
 78
     2
 67
     7
 79
     5
170
     0
171
     0
290
     0
174
     0
 93
       13
 44
0.0
173
     0
291
     1
 45
0.0
1001
ACAD
1000
AcDbSavedByObjectVersion
1070
     0
  0
VISUALSTYLE
  5
2C
102
{ACAD_REACTORS
330
2A
102
}
330
2A
100
AcDbVisualStyle
  2
FlatWithEdges
 70
     1
 71
     2
 72
     1
 73
     1
 90
        2
 40
-0.6
 41
30.0
 62
     5
 63
     7
421
 16777215
 74
     1
 91
        4
 64
     7
 65
   257
 75
     1
175
     1
 42
1.0
 92
        0
 66
   257
 43
1.0
 76
     1
 77
     6
 78
     2
 67
     7
 79
     5
170
     0
171
     0
290
     0
174
     0
 93
       13
 44
0.0
173
     0
291
     1
 45
0.0
1001
ACAD
1000
AcDbSavedByObjectVersion
1070
     0
  0
VISUALSTYLE
  5
2D
102
{ACAD_REACTORS
330
2A
102
}
330
2A
100
AcDbVisualStyle
  2
Gouraud
 70
     2
 71
     2
 72
     2
 73
     1
 90
        2
 40
-0.6
 41
30.0
 62
     5
 63
     7
421
 16777215
 74
     0
 91
        4
 64
     7
 65
   257
 75
     1
175
     1
 42
1.0
 92
        0
 66
     7
 43
1.0
 76
     1
 77
     6
 78
     2
 67
     7
 79
     5
170
     0
171
     0
290
     0
174
     0
 93
       13
 44
0.0
173
     0
291
     1
 45
0.0
1001
ACAD
1000
AcDbSavedByObjectVersion
1070
     0
  0
VISUALSTYLE
  5
2E
102
{ACAD_REACTORS
330
2A
102
}
330
2A
100
AcDbVisualStyle
  2
GouraudWithEdges
 70
     3
 71
     2
 72
     2
 73
     1
 90
        2
 40
-0.6
 41
30.0
 62
     5
 63
     7
421
 16777215
 74
     1
 91
        4
 64
     7
 65
   257
 75
     1
175
     1
 42
1.0
 92
        0
 66
   257
 43
1.0
 76
     1
 77
     6
 78
     2
 67
     7
 79
     5
170
     0
171
     0
290
     0
174
     0
 93
       13
 44
0.0
173
     0
291
     1
 45
0.0
1001
ACAD
1000
AcDbSavedByObjectVersion
1070
     0
  0
VISUALSTYLE
  5
38
102
{ACAD_REACTORS
330
2A
102
}
330
2A
100
AcDbVisualStyle
  2
Linepattern
 70
    14
 71
     2
 72
     2
 73
     0
 90
        0
 40
-0.6
 41
-30.0
 62
     5
 63
     7
421
 16777215
 74
     1
 91
        4
 64
     7
 65
   257
 75
     7
175
     7
 42
1.0
 92
        8
 66
     7
 43
1.0
 76
     1
 77
     6
 78
     2
 67
     7
 79
     5
170
     0
171
     0
290
     0
174
     0
 93
        1
 44
0.0
173
     0
291
     1
 45
0.0
1001
ACAD
1000
AcDbSavedByObjectVersion
1070
     0
  0
VISUALSTYLE
  5
33
102
{ACAD_REACTORS
330
2A
102
}
330
2A
100
AcDbVisualStyle
  2
Realistic
 70
     8
 71
     2
 72
     2
 73
     0
 90
        0
 40
-0.6
 41
-30.0
 62
     5
 63
     7
421
 16777215
 74
     1
 91
        0
 64
     7
 65
   257
 75
     1
175
     1
 42
1.0
 92
        8
 66
     8
424
  7895160
 43
1.0
 76
     1
 77
     6
 78
     2
 67
     7
 79
     5
170
     0
171
     0
290
     0
174
     0
 93
       13
 44
0.0
173
     0
291
     0
 45
0.0
1001
ACAD
1000
AcDbSavedByObjectVersion
1070
     0
  0
VISUALSTYLE
  5
37
102
{ACAD_REACTORS
330
2A
102
}
330
2A
100
AcDbVisualStyle
  2
Thicken
 70
    13
 71
     2
 72
     2
 73
     0
 90
        0
 40
-0.6
 41
-30.0
 62
     5
 63
     7
421
 16777215
 74
     1
 91
        4
 64
     7
 65
   257
 75
     1
175
     1
 42
1.0
 92
       12
 66
     7
 43
1.0
 76
     1
 77
     6
 78
     2
 67
     7
 79
     5
170
     0
171
     0
290
     0
174
     0
 93
        1
 44
0.0
173
     0
291
     1
 45
0.0
1001
ACAD
1000
AcDbSavedByObjectVersion
1070
     0
  0
ENDSEC
  0
EOF
